<?xml version="1.0" encoding="UTF-8"?>
<svg width="20px" height="17px" viewBox="0 0 20 17" version="1.1" xmlns="http://www.w3.org/2000/svg" xmlns:xlink="http://www.w3.org/1999/xlink">
    <title>icon/cell_phone copy 4</title>
    <g id="READY" stroke="none" stroke-width="1" fill="none" fill-rule="evenodd">
        <g id="06-Make-new-order-Order-confirmation-Copy-4" transform="translate(-523.000000, -222.000000)" fill="#2979FF">
            <g id="Group-20" transform="translate(520.000000, 218.000000)">
                <g id="Group" transform="translate(0.898552, 0.000000)">
                    <g id="warning-black-24dp" transform="translate(1.998562, 3.000000)">
                        <path d="M2.4682243,18 L17.5173976,18 C19.0562904,18 20.0156003,16.33 19.2461538,15 L11.7215672,1.99 C10.9521208,0.66 9.03350108,0.66 8.26405464,1.99 L0.739468009,15 C-0.0299784328,16.33 0.929331416,18 2.4682243,18 Z M9.99281093,11 C9.44320633,11 8.99352983,10.55 8.99352983,10 L8.99352983,8 C8.99352983,7.45 9.44320633,7 9.99281093,7 C10.5424155,7 10.992092,7.45 10.992092,8 L10.992092,10 C10.992092,10.55 10.5424155,11 9.99281093,11 Z M10.992092,15 L8.99352983,15 L8.99352983,13 L10.992092,13 L10.992092,15 Z" id="Shape"></path>
                    </g>
                </g>
            </g>
        </g>
    </g>
</svg>