<svg width="24" height="26" xmlns="http://www.w3.org/2000/svg"><path d="M.615 21.777c.359.359.795.538 1.282.538h6.414c0 1.027.359 1.874 1.078 2.591a3.547 3.547 0 002.59 1.078c1.026 0 1.872-.36 2.591-1.078.718-.717 1.077-1.564 1.077-2.59h6.414c.486 0 .923-.18 1.282-.539.359-.36.538-.795.538-1.283-1.82-1.539-3.18-3.437-4.104-5.695a18.682 18.682 0 01-1.385-7.132c0-1.59-.462-2.821-1.36-3.745-.923-.948-2.18-1.487-3.77-1.692.076-.155.103-.334.103-.513 0-.386-.13-.718-.41-.975-.258-.283-.592-.41-.976-.41a1.21 1.21 0 00-.95.41c-.282.257-.41.59-.41.975 0 .179.026.358.103.513-1.59.205-2.848.744-3.771 1.692-.924.924-1.385 2.156-1.385 3.745 0 2.49-.462 4.875-1.385 7.132-.924 2.258-2.284 4.156-4.104 5.695 0 .488.179.923.538 1.283zm9.081.308c.154 0 .23.076.23.23 0 .565.205 1.052.617 1.437a1.9 1.9 0 001.436.616c.154 0 .231.077.231.23 0 .154-.077.232-.23.232a2.425 2.425 0 01-1.77-.744c-.489-.488-.745-1.078-.745-1.77 0-.155.077-.231.231-.231z" fill="#FFF" fill-rule="evenodd"/></svg>