<?xml version="1.0" encoding="UTF-8"?>
<svg width="18px" height="21px" viewBox="0 0 18 21" version="1.1" xmlns="http://www.w3.org/2000/svg" xmlns:xlink="http://www.w3.org/1999/xlink">
    <title>icon/Font Awesome/bell copy 5</title>
    <defs>
        <filter id="filter-1">
            <feColorMatrix in="SourceGraphic" type="matrix" values="0 0 0 0 0.592157 0 0 0 0 0.592157 0 0 0 0 0.592157 0 0 0 1.000000 0"></feColorMatrix>
        </filter>
    </defs>
    <g id="Symbols" stroke="none" stroke-width="1" fill="none" fill-rule="evenodd">
        <g id="Order-item-not-in-stock" transform="translate(-689.000000, -11.000000)">
            <g id="Group-2" transform="translate(583.000000, 10.000000)">
                <g id="fa-bell" transform="translate(103.000000, 0.000000)" filter="url(#filter-1)">
                    <g transform="translate(3.636364, 1.548387)">
                        <path d="M0.447168831,16.8597235 C0.708155844,17.1375484 1.02566234,17.2764608 1.37974026,17.2764608 L6.04425974,17.2764608 C6.04425974,18.0710046 6.30524675,18.7266359 6.82805195,19.2822857 C7.35002597,19.8379355 7.98420779,20.1166452 8.71231169,20.1166452 C9.45787013,20.1166452 10.0737662,19.8379355 10.5965714,19.2822857 C11.1185455,18.7266359 11.3795325,18.0710046 11.3795325,17.2764608 L16.0440519,17.2764608 C16.3981299,17.2764608 16.7156364,17.1375484 16.9766234,16.8597235 C17.2376104,16.5810138 17.3681039,16.2439078 17.3681039,15.8661014 C16.0440519,14.6751705 15.054961,13.20553 14.3833766,11.4571797 C13.7117922,9.70971429 13.376,7.86315207 13.376,5.93607373 C13.376,4.70532719 13.0402078,3.75152074 12.3869091,3.03660829 C11.7153247,2.30223041 10.801039,1.88549309 9.64488312,1.72623041 C9.70057143,1.60678341 9.71968831,1.46787097 9.71968831,1.32895853 C9.71968831,1.03078341 9.62576623,0.773308756 9.4212987,0.574230415 C9.23428571,0.355686636 8.99158442,0.256589862 8.71231169,0.256589862 C8.43220779,0.256589862 8.20862338,0.355686636 8.02161039,0.574230415 C7.81631169,0.773308756 7.72322078,1.03078341 7.72322078,1.32895853 C7.72322078,1.46787097 7.74150649,1.60678341 7.79802597,1.72623041 C6.64103896,1.88549309 5.72675325,2.30223041 5.05516883,3.03660829 C4.38358442,3.75152074 4.04779221,4.70532719 4.04779221,5.93607373 C4.04779221,7.86315207 3.712,9.70971429 3.04041558,11.4571797 C2.36883117,13.20553 1.37974026,14.6751705 0.0556883117,15.8661014 C0.0556883117,16.2439078 0.186181818,16.5810138 0.447168831,16.8597235 L0.447168831,16.8597235 Z M7.05163636,17.0977327 C7.16384416,17.0977327 7.21953247,17.1570138 7.21953247,17.2764608 C7.21953247,17.7135484 7.36831169,18.09047 7.66753247,18.3886452 C7.94680519,18.7062857 8.30171429,18.8655484 8.71231169,18.8655484 C8.82368831,18.8655484 8.88020779,18.9248295 8.88020779,19.0442765 C8.88020779,19.1628387 8.82368831,19.2230046 8.71231169,19.2230046 C8.20862338,19.2230046 7.77890909,19.0239263 7.42483117,18.6470046 C7.06992208,18.2691982 6.88374026,17.8126452 6.88374026,17.2764608 C6.88374026,17.1570138 6.93942857,17.0977327 7.05163636,17.0977327 L7.05163636,17.0977327 Z" id="Fill-180" fill="#FFFFFF"></path>
                    </g>
                </g>
            </g>
        </g>
    </g>
</svg>