<?xml version="1.0" encoding="UTF-8"?>
<svg width="25px" height="25px" viewBox="0 0 25 25" version="1.1" xmlns="http://www.w3.org/2000/svg" xmlns:xlink="http://www.w3.org/1999/xlink">
    <title>radio/selected</title>
    <g id="READY" stroke="none" stroke-width="1" fill="none" fill-rule="evenodd">
        <g id="06-Make-new-order-Order-confirmation-Copy-3" transform="translate(-696.000000, -2040.000000)" fill="#0F73E7" fill-rule="nonzero">
            <g id="Group-16" transform="translate(490.000000, 119.000000)">
                <g id="Group-9" transform="translate(32.000000, 1860.000000)">
                    <g id="Group-11" transform="translate(154.000000, 41.000000)">
                        <g id="Shape" transform="translate(20.000000, 20.000000)">
                            <path d="M21.339,3.661 C18.978,1.3 15.839,0 12.5,0 C9.161,0 6.022,1.3 3.661,3.661 C1.3,6.022 0,9.161 0,12.5 C0,15.839 1.3,18.978 3.661,21.339 C6.022,23.7 9.161,25 12.5,25 C15.839,25 18.978,23.7 21.339,21.339 C23.7,18.978 25,15.839 25,12.5 C25,9.161 23.7,6.022 21.339,3.661 Z M18.472,9.525 L11.486,16.511 C11.343,16.654 11.156,16.725 10.969,16.725 C10.781,16.725 10.594,16.654 10.451,16.511 L6.528,12.588 C6.242,12.302 6.242,11.838 6.528,11.552 C6.814,11.266 7.278,11.266 7.564,11.552 L10.969,14.957 L17.436,8.489 C17.722,8.203 18.186,8.203 18.472,8.489 C18.758,8.775 18.758,9.239 18.472,9.525 Z"></path>
                        </g>
                    </g>
                </g>
            </g>
        </g>
    </g>
</svg>