<svg width="21" height="24" xmlns="http://www.w3.org/2000/svg"><g fill="#0F73E7" fill-rule="evenodd"><path d="M1.229 22.607c.225.246.516.359.853.359h16.812c.337 0 .628-.113.853-.359.247-.225.359-.517.359-.853V7.343c0-.336-.09-.718-.247-1.122-.18-.381-.382-.718-.606-.943l-3.905-3.905c-.225-.225-.562-.427-.943-.606C14.001.61 13.619.52 13.282.52h-11.2c-.337 0-.628.112-.853.359-.247.225-.359.516-.359.853v20.022c0 .336.112.628.359.853zM2.464 2.114h9.629v5.207c0 .337.112.629.359.853.224.247.516.359.853.359h5.207v12.839H2.464V2.114zm11.222.089c.247.09.404.18.517.292l3.928 3.928c.112.112.202.27.292.516h-4.737V2.203z"/><path d="M5 6h6v1H5zm0 3h6v1H5zm0 3h11v1H5zm0 3h11v1H5zm0 3h11v1H5z"/></g></svg>