<svg width="28" height="28" xmlns="http://www.w3.org/2000/svg"><g fill="#FFF" stroke="#FFF" stroke-width="2" fill-rule="evenodd"><path d="M6.425 1c.292.01.582.048.867.114.358.056.632.125.898.22h0l2.189 8.59c-.285.55-.505.62-1.631 1.187-.333.168-.583.298-.778.399.088.286.186.57.294.853 1.291 3.36 3.894 5.986 7.152 7.487.288.133.58.256.874.37.11-.208.251-.473.43-.814.649-1.238.751-1.487.869-1.618h0l8.827 1.75c.39.548.465.834.513 1.116.048.3.071.602.071.906a5.436 5.436 0 01-3.358 5.026 5.436 5.436 0 01-2.08.414A20.588 20.588 0 011 6.44 5.44 5.44 0 016.425 1z" fill-rule="nonzero"/><path d="M25.422 1.253l1.013.94-5.659 6.444 3.128 3.127-7.732.16-.095-7.765 3.33 3.11 6.015-6.016z"/></g></svg>