<svg width="21" height="20" xmlns="http://www.w3.org/2000/svg"><g fill="#417505" fill-rule="evenodd"><path d="M20.3 13.91a1.012 1.012 0 00-.728-.65l-6.063-1.37a1.023 1.023 0 00-.93.26c-.141.13-.151.14-.808 1.38a9.962 9.962 0 01-4.922-4.89C8.132 8 8.143 8 8.274 7.85a.997.997 0 00.263-.92L7.152 1a.997.997 0 00-.657-.72A3.867 3.867 0 005.768.1a4.02 4.02 0 00-.779-.1 4.674 4.674 0 00-3.287 1.347A4.576 4.576 0 00.34 4.6a15.338 15.338 0 004.565 10.884 15.668 15.668 0 0011 4.516 4.69 4.69 0 003.287-1.347 4.598 4.598 0 001.007-1.493 4.555 4.555 0 00.354-1.76c0-.255-.02-.509-.06-.76a4.31 4.31 0 00-.192-.73z" fill-rule="nonzero"/><path d="M20.54 1.763a.377.377 0 00-.122-.276L19.036.12a.384.384 0 00-.557 0l-4.025 3.982-1.746-1.727a.75.75 0 00-.545-.228.75.75 0 00-.546.228.734.734 0 00-.23.54v5.373c0 .208.077.388.23.54a.75.75 0 00.546.228h5.43a.75.75 0 00.546-.228.734.734 0 00.23-.54.734.734 0 00-.23-.54l-1.745-1.727 4.025-3.982a.378.378 0 00.12-.276z"/></g></svg>