<svg width="320" height="204" xmlns:xlink="http://www.w3.org/1999/xlink" xmlns="http://www.w3.org/2000/svg"><defs><path d="M94 46.5C94 72.181 72.957 93 47 93S0 72.181 0 46.5 21.043 0 47 0s47 20.819 47 46.5zm-23.5 0c0 12.84-10.521 23.25-23.5 23.25S23.5 59.34 23.5 46.5 34.021 23.25 47 23.25 70.5 33.66 70.5 46.5z" id="c"/><path d="M48.563 9.744v11.195h24.28V34.46c0 5.38-4.359 9.743-9.736 9.743H48.563v41.659a4.87 4.87 0 004.868 4.872h10.832c5.378 0 9.737 4.362 9.737 9.743V114H44.911c-10.755 0-19.474-8.725-19.474-19.487V44.204H0V30.682c0-5.38 4.36-9.743 9.737-9.743h15.7V0h13.389c5.377 0 9.736 4.362 9.736 9.744z" transform="translate(97)" id="d"/><path d="M48.563 0h24.28v13.522c0 5.381-4.359 9.743-9.736 9.743H0V9.744C0 4.362 4.36 0 9.737 0h38.825z" transform="translate(97 20.939)" id="f"/><path d="M0 0h31v3.833C31 14.42 22.326 23 11.625 23H0V0z" transform="translate(48 21)" id="h"/><path id="a" d="M0 0h320v204H0z"/><linearGradient x1=".5" y1="0" x2=".5" y2="1" id="e"><stop offset=".284" stop-color="#FFF" stop-opacity=".502"/><stop offset=".512" stop-color="#A0A0A0" stop-opacity=".502"/><stop offset=".787" stop-color="#FFF" stop-opacity=".502"/></linearGradient><linearGradient x1="1" y1=".5" x2="0" y2=".5" id="g"><stop offset="0" stop-color="#7C7C7C" stop-opacity=".502"/><stop offset="1" stop-opacity=".502"/></linearGradient><linearGradient x1="1" y1=".5" x2="0" y2=".5" id="i"><stop offset="0" stop-color="#6B6B6B" stop-opacity=".412"/><stop offset="1" stop-opacity=".502"/></linearGradient><clipPath id="b"><use xlink:href="#a" clip-rule="evenodd"/></clipPath></defs><g clip-path="url(#b)"><path d="M28 184h265v20H28v-20z" fill="#00488F"/><g fill="#FFF"><path d="M46.305 199l-.017-7.752-3.657 6.387h-1.294l-3.638-6.221V199H35v-12.923h2.378l4.65 8.03 4.578-8.03h2.36L49 199h-2.695z"/><path d="M51.847 196.658c.46.733 1.101 1.308 1.923 1.721.82.415 1.746.621 2.778.621 1.033 0 1.955-.205 2.77-.62a4.751 4.751 0 001.913-1.722c.461-.737.692-1.57.692-2.503s-.23-1.766-.692-2.502c-.462-.737-1.1-1.309-1.913-1.725-.815-.413-1.738-.62-2.77-.62-1.033 0-1.958.207-2.778.62-.822.415-1.462.988-1.923 1.725-.461.736-.693 1.57-.693 2.502 0 .933.232 1.766.693 2.503zm7.198-2.504c0 .794-.234 1.424-.701 1.898-.468.474-1.067.71-1.794.71-.73 0-1.33-.238-1.804-.71-.474-.473-.71-1.104-.71-1.898q0-1.191.71-1.898c.474-.473 1.074-.71 1.804-.71.727 0 1.326.236 1.794.71.467.47.7 1.104.7 1.898z" fill-rule="evenodd"/><path d="M67.344 189.663c.612-.238 1.318-.355 2.118-.355v2.557a11.438 11.438 0 00-.676-.037c-.865 0-1.542.222-2.031.667-.491.442-.736 1.109-.736 1.997V199H63v-9.55h2.884v1.261c.36-.461.847-.81 1.46-1.048z"/><path d="M73.222 194.926h6.957c.034-.455.051-.701.051-.736 0-.982-.209-1.84-.624-2.582a4.31 4.31 0 00-1.719-1.707c-.728-.394-1.544-.593-2.444-.593-.923 0-1.758.207-2.504.62a4.552 4.552 0 00-1.76 1.732c-.428.742-.64 1.573-.64 2.496 0 .933.215 1.766.649 2.502.432.734 1.048 1.308 1.844 1.722.799.415 1.716.62 2.754.62q2.495 0 3.795-1.522l-1.419-1.575a3.05 3.05 0 01-1.034.692c-.37.146-.795.218-1.274.218-.695 0-1.276-.168-1.743-.508a2.203 2.203 0 01-.89-1.38zm-.035-1.594c.091-.607.342-1.085.753-1.435.41-.348.916-.525 1.521-.526.593 0 1.094.178 1.504.533.41.358.662.835.752 1.428h-4.53zm22.121.157c0-1.401-.378-2.447-1.13-3.142-.754-.695-1.833-1.042-3.236-1.04-.732 0-1.443.102-2.134.298-.691.2-1.284.478-1.778.842l.944 1.906c.326-.27.722-.482 1.19-.64a4.43 4.43 0 011.424-.237c.697 0 1.219.16 1.568.48.347.324.523.782.523 1.375h-2.091c-1.327 0-2.308.25-2.944.753-.634.502-.952 1.191-.952 2.066 0 .547.135 1.04.405 1.47.27.431.66.772 1.171 1.015.511.244 1.116.365 1.812.365 1.35 0 2.272-.438 2.766-1.312v1.172h2.462v-5.371zm-2.632 2.397a1.752 1.752 0 01-.742.952 2.205 2.205 0 01-1.197.326c-.462 0-.824-.104-1.087-.308-.265-.202-.397-.481-.397-.831 0-.736.54-1.101 1.619-1.101h1.804v.962z" fill-rule="evenodd"/><path d="M100.069 198.378c-.819-.413-1.458-.988-1.918-1.721-.459-.737-.69-1.57-.69-2.502 0-.933.231-1.766.69-2.503.46-.736 1.1-1.31 1.918-1.724.817-.413 1.74-.62 2.767-.62 1.015 0 1.901.207 2.66.62a3.728 3.728 0 011.658 1.777l-2.167 1.139c-.502-.866-1.225-1.297-2.168-1.297-.727 0-1.332.235-1.808.7-.48.469-.717 1.104-.717 1.909 0 .805.238 1.44.717 1.906.477.468 1.08.701 1.808.701.955 0 1.679-.433 2.168-1.296l2.167 1.153c-.347.747-.898 1.33-1.657 1.751-.76.422-1.644.629-2.661.629-1.027-.001-1.95-.207-2.767-.622zm10.768 0a4.733 4.733 0 01-1.918-1.721c-.458-.737-.689-1.57-.689-2.502 0-.933.23-1.766.69-2.503.46-.736 1.099-1.31 1.917-1.724.818-.413 1.74-.62 2.767-.62 1.016 0 1.902.207 2.661.62a3.728 3.728 0 011.658 1.777l-2.168 1.139c-.501-.866-1.225-1.297-2.167-1.297-.728 0-1.333.235-1.808.7-.48.469-.718 1.104-.718 1.909 0 .805.238 1.44.718 1.906.477.468 1.08.701 1.808.701.955 0 1.678-.433 2.167-1.296l2.168 1.153c-.347.747-.899 1.33-1.658 1.751-.76.422-1.644.629-2.66.629-1.027-.001-1.95-.207-2.768-.622z"/><path d="M121.684 194.926h6.957c.034-.455.051-.701.051-.736 0-.982-.209-1.84-.624-2.582a4.31 4.31 0 00-1.719-1.707c-.728-.394-1.544-.593-2.444-.593-.923 0-1.758.207-2.504.62a4.552 4.552 0 00-1.76 1.732c-.428.742-.641 1.573-.641 2.496 0 .933.216 1.766.65 2.502.432.734 1.048 1.308 1.844 1.722.799.415 1.716.62 2.754.62q2.495 0 3.795-1.522l-1.42-1.575a3.038 3.038 0 01-1.033.692c-.37.146-.795.218-1.274.218-.695 0-1.277-.168-1.743-.508a2.203 2.203 0 01-.89-1.38zm-.035-1.594c.091-.607.342-1.085.753-1.435.41-.348.916-.525 1.52-.526.594 0 1.095.178 1.505.533.41.358.662.835.752 1.428h-4.53z" fill-rule="evenodd"/><path d="M131.574 198.716c-.755-.195-1.357-.436-1.804-.728l.92-1.959c.424.268.937.486 1.539.657a6.56 6.56 0 001.77.253c1.167 0 1.75-.286 1.75-.857 0-.268-.157-.46-.477-.579-.318-.116-.808-.215-1.468-.297-.779-.116-1.421-.25-1.929-.403a3.009 3.009 0 01-1.319-.805c-.37-.386-.556-.932-.556-1.646 0-.593.174-1.122.522-1.583.347-.46.855-.82 1.522-1.075.665-.257 1.452-.386 2.361-.386.673 0 1.34.074 2.01.218.665.146 1.217.347 1.653.604l-.92 1.942a5.522 5.522 0 00-2.743-.7c-.59 0-1.033.082-1.328.247-.295.164-.441.373-.441.628 0 .292.158.497.478.613.318.118.824.228 1.521.333.779.13 1.416.266 1.91.411.495.147.927.413 1.291.797.365.383.549.923.549 1.608a2.47 2.47 0 01-.53 1.559c-.356.455-.872.807-1.55 1.056-.679.253-1.483.376-2.414.376a9.275 9.275 0 01-2.317-.284zm8.616 0c-.756-.195-1.356-.436-1.805-.728l.921-1.959c.425.268.937.486 1.54.657.6.168 1.19.253 1.769.253 1.168 0 1.752-.286 1.752-.857 0-.268-.16-.46-.478-.579-.319-.116-.809-.215-1.469-.297-.778-.116-1.422-.25-1.928-.403a3.001 3.001 0 01-1.32-.805c-.37-.386-.556-.932-.556-1.646 0-.593.173-1.122.521-1.583.349-.46.857-.82 1.522-1.075.666-.257 1.454-.386 2.361-.386.673 0 1.342.074 2.01.218.665.146 1.217.347 1.654.604l-.92 1.942a5.527 5.527 0 00-2.744-.7c-.59 0-1.031.082-1.327.247-.295.164-.442.373-.442.628 0 .292.16.497.478.613.318.118.826.228 1.521.333.779.13 1.416.266 1.911.411a2.89 2.89 0 011.292.797c.365.383.547.923.547 1.608a2.47 2.47 0 01-.53 1.559c-.355.455-.872.807-1.55 1.056-.677.253-1.483.376-2.414.376a9.275 9.275 0 01-2.316-.284zm8.354-.181c-.31-.31-.467-.699-.467-1.166 0-.478.156-.864.467-1.156.31-.295.694-.444 1.15-.444a1.6 1.6 0 011.147.444c.312.293.467.678.467 1.156 0 .467-.155.856-.467 1.166-.31.31-.694.465-1.148.465a1.554 1.554 0 01-1.15-.465zm21.607.465l-.018-7.752-3.657 6.387h-1.294l-3.638-6.221V199h-2.698v-12.923h2.378l4.649 8.03 4.578-8.03h2.36l.035 12.923h-2.695z"/><path d="M175.692 196.658a4.73 4.73 0 001.924 1.721c.82.415 1.745.621 2.778.621s1.955-.205 2.77-.62a4.751 4.751 0 001.913-1.722c.461-.737.692-1.57.692-2.503s-.231-1.766-.692-2.502c-.463-.737-1.1-1.309-1.914-1.725-.814-.413-1.738-.62-2.77-.62s-1.957.207-2.777.62c-.822.415-1.462.988-1.924 1.725-.46.736-.692 1.57-.692 2.502 0 .933.231 1.766.692 2.503zm7.199-2.504c0 .794-.235 1.424-.701 1.898-.468.474-1.067.71-1.794.71-.73 0-1.33-.238-1.804-.71-.474-.473-.711-1.104-.711-1.898q0-1.191.71-1.898c.474-.473 1.074-.71 1.804-.71.728 0 1.327.236 1.795.71.466.47.7 1.104.7 1.898z" fill-rule="evenodd"/><path d="M191.19 189.663c.61-.238 1.318-.355 2.117-.355v2.557a11.444 11.444 0 00-.676-.037c-.864 0-1.542.222-2.031.667-.492.442-.736 1.109-.736 1.997V199h-3.018v-9.55h2.884v1.261c.36-.461.846-.81 1.46-1.048z"/><path d="M197.069 194.926h6.957c.033-.455.051-.701.051-.736 0-.982-.209-1.84-.625-2.582a4.31 4.31 0 00-1.718-1.707c-.729-.394-1.544-.593-2.445-.593-.923 0-1.758.207-2.503.62a4.552 4.552 0 00-1.76 1.732c-.428.742-.641 1.573-.641 2.496 0 .933.215 1.766.65 2.502.432.734 1.047 1.308 1.844 1.722.798.415 1.716.62 2.754.62q2.495 0 3.795-1.522l-1.42-1.575a3.038 3.038 0 01-1.033.692c-.37.146-.795.218-1.274.218-.696 0-1.277-.168-1.744-.508a2.203 2.203 0 01-.888-1.38zm-.035-1.594c.09-.607.342-1.085.752-1.435.41-.348.917-.525 1.522-.526.593 0 1.094.178 1.504.533.41.358.661.835.752 1.428h-4.53zm23.63-1.613a4.435 4.435 0 00-1.773-1.67 5.266 5.266 0 00-2.51-.593c-1.261 0-2.254.374-2.976 1.121v-4.5h-2.867v12.786h2.74v-1.067c.71.802 1.744 1.204 3.104 1.204.919 0 1.756-.196 2.51-.593a4.423 4.423 0 001.772-1.672c.43-.718.643-1.554.643-2.507 0-.953-.213-1.79-.643-2.51zm-2.26 2.508c0 .782-.236 1.402-.709 1.869-.472.466-1.075.698-1.81.698-.733 0-1.338-.232-1.809-.698-.472-.466-.708-1.087-.708-1.87q0-1.173.708-1.868c.471-.466 1.076-.7 1.81-.7s1.337.233 1.81.7c.472.462.708 1.086.708 1.869zm7.742.699h6.957c.033-.455.051-.701.051-.736 0-.982-.209-1.84-.624-2.582a4.31 4.31 0 00-1.719-1.707c-.728-.394-1.544-.593-2.444-.593-.924 0-1.758.207-2.504.62a4.552 4.552 0 00-1.76 1.732c-.428.742-.641 1.573-.641 2.496 0 .933.216 1.766.65 2.502.432.734 1.047 1.308 1.844 1.722.798.415 1.716.62 2.754.62q2.495 0 3.795-1.522l-1.42-1.575a3.038 3.038 0 01-1.033.692c-.37.146-.795.218-1.274.218-.695 0-1.277-.168-1.743-.508a2.203 2.203 0 01-.89-1.38zm-.036-1.594c.091-.607.342-1.085.752-1.435.41-.348.918-.525 1.522-.526.593 0 1.094.178 1.504.533.41.358.662.835.752 1.428h-4.53z" fill-rule="evenodd"/><path d="M243.915 190.371c.723.712 1.085 1.766 1.085 3.16V199h-2.75v-5.04c0-.758-.163-1.324-.493-1.696-.328-.37-.805-.557-1.427-.557-.694 0-1.246.215-1.657.648-.412.432-.616 1.072-.616 1.925V199h-2.75v-9.55h2.628v1.12a3.655 3.655 0 011.357-.935 4.699 4.699 0 011.778-.327c1.174-.002 2.123.353 2.845 1.063z"/><path d="M248.76 194.926h6.958c.036-.455.051-.701.051-.736 0-.982-.209-1.84-.624-2.582a4.31 4.31 0 00-1.719-1.707c-.728-.394-1.542-.593-2.443-.593-.923 0-1.758.207-2.503.62a4.546 4.546 0 00-1.762 1.732c-.427.742-.64 1.573-.64 2.496 0 .933.216 1.766.649 2.502.432.734 1.048 1.308 1.846 1.722.798.415 1.715.62 2.752.62q2.497 0 3.795-1.522l-1.419-1.575a3.032 3.032 0 01-1.033.692 3.46 3.46 0 01-1.275.218c-.694 0-1.276-.168-1.743-.508a2.209 2.209 0 01-.89-1.38zm-.031-1.594c.09-.607.34-1.085.75-1.435.412-.348.918-.525 1.522-.526.593 0 1.095.178 1.505.533.41.358.66.835.751 1.428h-4.528zm17.982-5.68a1.428 1.428 0 01-.495-1.104c0-.44.165-.808.495-1.105.33-.294.757-.443 1.282-.443.524 0 .952.142 1.281.427.328.283.495.639.495 1.066 0 .462-.165.844-.495 1.147-.33.305-.757.454-1.281.454-.525.001-.952-.145-1.282-.442zm-3.038 1.991h-2.525v-.406c0-.926.433-1.388 1.3-1.388q.659 0 1.153.337l.75-2.01a3.016 3.016 0 00-.961-.382 5.383 5.383 0 00-1.217-.134c-1.208 0-2.145.32-2.81.962-.667.637-.998 1.503-.998 2.594v.427h-1.52v2.136h1.52V199h2.855v-7.221h2.453v-2.136zm5.746-.214h-2.856V199h2.856v-9.57z" fill-rule="evenodd"/><path d="M278.384 198.396a2.96 2.96 0 01-1.035.455c-.41.101-.841.149-1.293.149-1.174 0-2.082-.29-2.724-.873-.642-.58-.964-1.435-.964-2.564v-3.937h-1.522v-2.139h1.522v-2.333h2.861v2.333h2.458v2.14h-2.458v3.902c0 .402.106.714.322.935.213.219.516.328.909.328.451 0 .836-.117 1.154-.356l.77 1.96zm1.806.32c-.756-.195-1.356-.436-1.805-.728l.921-1.959c.425.268.937.486 1.54.657.6.168 1.19.253 1.769.253 1.168 0 1.752-.286 1.752-.857 0-.268-.16-.46-.478-.579-.319-.116-.809-.215-1.469-.297-.778-.116-1.422-.25-1.928-.403a3.001 3.001 0 01-1.32-.805c-.37-.386-.556-.932-.556-1.646 0-.593.173-1.122.521-1.583.349-.46.857-.82 1.522-1.075.666-.257 1.454-.386 2.361-.386.673 0 1.342.074 2.01.218.665.146 1.217.347 1.654.604l-.92 1.942a5.527 5.527 0 00-2.744-.7c-.59 0-1.031.082-1.327.247-.295.164-.442.373-.442.628 0 .292.16.497.478.613.318.118.826.228 1.521.333.779.13 1.416.266 1.911.411a2.89 2.89 0 011.292.797c.365.383.547.923.547 1.608a2.47 2.47 0 01-.53 1.559c-.355.455-.872.807-1.55 1.056-.677.253-1.483.376-2.414.376a9.283 9.283 0 01-2.316-.284z"/></g><g fill-rule="evenodd" transform="translate(29 21)"><use fill="#074A8D" xlink:href="#c"/><use fill="#FFF" style="mix-blend-mode:multiply" xlink:href="#c"/></g><path d="M213 67.5c0-25.681 20.849-46.5 46.567-46.5H291v3.671c0 10.813-8.73 19.579-19.5 19.579h-11.933c-12.859 0-23.283 10.41-23.283 23.25s10.424 23.25 23.283 23.25H271.5c10.657 0 19.318 8.584 19.497 19.242l.003.337V114h-31.433C233.85 114 213 93.181 213 67.5z" fill="#074A8D"/><g transform="translate(28)"><use fill="#074A8D" xlink:href="#d"/><use fill="url(#e)" style="mix-blend-mode:multiply" xlink:href="#d"/></g><g transform="translate(28)"><use fill="#074A8D" xlink:href="#f"/><use fill="url(#g)" style="mix-blend-mode:color-dodge" xlink:href="#f"/></g><path d="M76 21h31v3.001q0 .491-.024.981t-.072.98q-.048.488-.12.973-.073.486-.168.968-.096.481-.215.957-.12.477-.262.946-.143.47-.308.932-.166.463-.353.916-.188.454-.398.898-.21.444-.442.877-.23.432-.483.853-.253.422-.525.83-.273.408-.566.802-.292.395-.604.774-.311.38-.64.743-.33.364-.678.711-.347.348-.71.677-.364.33-.744.641-.38.312-.774.604-.394.293-.802.566-.408.272-.83.525-.42.252-.853.484-.434.231-.877.44-.444.21-.898.399-.453.188-.916.353-.462.165-.932.308-.47.142-.946.262-.476.119-.957.215-.482.096-.968.168-.485.072-.974.12-.488.048-.979.072-.49.024-.981.024H76V21z" fill="#074A8D"/><g transform="translate(28)"><use fill="#074A8D" xlink:href="#h"/><use fill="url(#i)" style="mix-blend-mode:color-dodge" xlink:href="#h"/></g><g fill="#B2CC92"><path d="M35.532 170.66c-3.125-.89-5.636-2.049-7.532-3.472l3.328-7.246c1.813 1.307 3.972 2.357 6.472 3.148 2.5.792 5 1.188 7.5 1.188 2.783 0 4.84-.405 6.17-1.218 1.332-.81 1.996-1.89 1.996-3.235 0-.989-.393-1.812-1.18-2.466-.786-.654-1.795-1.177-3.024-1.572-1.23-.396-2.894-.834-4.992-1.309-3.226-.751-5.866-1.504-7.922-2.256a12.882 12.882 0 01-5.293-3.623c-1.472-1.663-2.207-3.88-2.207-6.653 0-2.414.665-4.603 1.995-6.562 1.33-1.959 3.336-3.514 6.017-4.662 2.68-1.148 5.957-1.722 9.828-1.722 2.702 0 5.344.318 7.924.95 2.58.635 4.838 1.544 6.775 2.732l-3.025 7.305c-3.91-2.179-7.823-3.268-11.732-3.268-2.745 0-4.77.436-6.08 1.307-1.311.873-1.967 2.02-1.967 3.446 0 1.426.757 2.485 2.27 3.176 1.51.694 3.82 1.377 6.926 2.05 3.226.754 5.866 1.506 7.922 2.256a13.145 13.145 0 015.293 3.565c1.47 1.624 2.209 3.82 2.209 6.593 0 2.376-.677 4.543-2.027 6.504-1.352 1.958-3.377 3.513-6.08 4.66-2.7 1.149-5.985 1.724-9.859 1.724a35.285 35.285 0 01-9.706-1.34zm46.825-32.944H69.07v-7.739h36.181v7.739H91.964v33.307h-9.607v-33.307z"/><path d="M114.15 161.516c2.024 3.268 4.822 5.831 8.396 7.691 3.574 1.863 7.588 2.793 12.042 2.793 4.451 0 8.455-.93 12.01-2.793 3.554-1.86 6.352-4.423 8.394-7.69 2.042-3.268 3.063-6.939 3.063-11.018 0-4.078-1.021-7.75-3.063-11.017-2.042-3.267-4.84-5.83-8.395-7.69-3.554-1.862-7.558-2.792-12.01-2.792-4.453 0-8.467.93-12.041 2.791-3.574 1.86-6.372 4.424-8.395 7.691-2.02 3.268-3.033 6.939-3.033 11.017 0 4.079 1.013 7.75 3.033 11.017zm32.76-4.093a12.404 12.404 0 01-4.835 4.743c-2.055 1.132-4.355 1.699-6.902 1.699-2.55 0-4.849-.566-6.903-1.699a12.428 12.428 0 01-4.837-4.743c-1.169-2.03-1.754-4.338-1.754-6.923s.585-4.893 1.754-6.922a12.409 12.409 0 014.837-4.743c2.054-1.136 4.353-1.7 6.903-1.7 2.547 0 4.847.564 6.902 1.7a12.385 12.385 0 014.835 4.743c1.172 2.03 1.758 4.337 1.758 6.922s-.586 4.895-1.758 6.923zm39.564 2.167l8.09 11.433v-.002h10.429l-9.41-13.19c2.757-1.175 4.885-2.864 6.383-5.074 1.498-2.209 2.247-4.838 2.247-7.887 0-3.049-.74-5.687-2.218-7.917-1.476-2.229-3.586-3.947-6.32-5.159-2.739-1.211-5.966-1.817-9.682-1.817h-18.159v41.046h9.71v-11.434h8.93zm-1.715-22.576c2.818 0 4.957.606 6.422 1.817 1.467 1.21 2.2 2.95 2.2 5.22 0 2.229-.733 3.959-2.2 5.189-1.465 1.23-3.606 1.846-6.422 1.846h-7.635v-14.072h7.635z" fill-rule="evenodd"/><path d="M249.974 163.4v7.623h-32.269v-41.046H249.2v7.622h-21.907v8.914h19.347v7.388h-19.347v9.498h22.682v.001zm15.353 7.26c-3.124-.89-5.636-2.049-7.53-3.472l3.328-7.246c1.813 1.307 3.97 2.357 6.472 3.148 2.5.792 5 1.188 7.5 1.188 2.782 0 4.839-.405 6.17-1.218 1.332-.81 1.995-1.89 1.995-3.235 0-.989-.392-1.812-1.179-2.466-.786-.654-1.796-1.177-3.025-1.572-1.23-.396-2.892-.834-4.99-1.309-3.227-.751-5.867-1.504-7.924-2.256a12.878 12.878 0 01-5.292-3.623c-1.472-1.663-2.209-3.88-2.209-6.653 0-2.414.667-4.603 1.997-6.562 1.33-1.959 3.336-3.514 6.016-4.662 2.683-1.148 5.958-1.722 9.83-1.722 2.7 0 5.343.318 7.924.95 2.578.635 4.838 1.544 6.775 2.732l-3.025 7.305c-3.91-2.179-7.823-3.268-11.736-3.268-2.742 0-4.77.436-6.077 1.307-1.31.873-1.966 2.02-1.966 3.446 0 1.426.755 2.485 2.27 3.176 1.51.694 3.82 1.377 6.924 2.05 3.225.754 5.866 1.506 7.924 2.256a13.13 13.13 0 015.292 3.565c1.472 1.624 2.209 3.82 2.209 6.593 0 2.376-.676 4.543-2.025 6.504-1.353 1.958-3.378 3.513-6.08 4.66-2.7 1.149-5.989 1.724-9.86 1.724a35.29 35.29 0 01-9.708-1.34z"/></g></g></svg>