<svg xmlns="http://www.w3.org/2000/svg" xmlns:xlink="http://www.w3.org/1999/xlink" viewBox="0 0 156 44"><defs><path id="a" d="M0 .067h17.988v10.534H0z"/><path id="c" d="M0 44h209V0H0z"/></defs><g fill="none" fill-rule="evenodd"><path d="M58.73 30.784l-.317-.218c-1.071-.74-2.205-1.11-3.399-1.11-.739 0-1.296.124-1.675.373-.377.25-.566.568-.566.955 0 .66.448 1.16 1.345 1.497.474.178 1.339.444 2.595.798 1.257.355 2.229.692 2.913 1.015C61.875 35.108 63 36.566 63 38.466c0 1.628-.707 2.957-2.121 3.988C59.464 43.484 57.518 44 55.04 44c-1.634 0-3.133-.283-4.494-.846-1.363-.564-2.412-1.241-3.15-2.03-.264-.274-.396-.563-.396-.87 0-.305.159-.571.475-.798l1.476-1.182c.246-.21.518-.315.817-.315.299 0 .615.153.95.46l.157.145c1.44 1.32 2.873 1.98 4.297 1.98.738 0 1.326-.129 1.765-.386.44-.258.66-.595.66-1.015 0-.789-.853-1.417-2.557-1.884-.247-.08-.659-.202-1.24-.362-.579-.162-1.032-.29-1.356-.388a15.758 15.758 0 01-1.173-.41 9.365 9.365 0 01-1.24-.58c-1.616-.902-2.424-2.199-2.424-3.89 0-1.497.662-2.81 1.99-3.937C50.923 26.564 52.737 26 55.04 26c1.318 0 2.544.19 3.677.567 1.133.379 2.034.794 2.702 1.245.58.37.87.757.87 1.16 0 .338-.167.636-.502.893l-1.265 1.064a1.23 1.23 0 01-.816.314c-.194 0-.52-.153-.976-.459M71.366 42.518V30.971a.644.644 0 00-.204-.477.668.668 0 00-.486-.2h-4.143c-.443 0-.809-.134-1.098-.403-.29-.267-.435-.618-.435-1.054v-1.355c0-.436.144-.792.435-1.068.29-.276.655-.414 1.098-.414h14.932c.444 0 .81.138 1.1.414.29.276.435.632.435 1.068v1.355c0 .436-.145.787-.435 1.054-.29.269-.656.402-1.1.402h-4.142a.804.804 0 00-.46.139.42.42 0 00-.204.363v11.648c0 .436-.154.803-.46 1.104a1.544 1.544 0 01-1.125.453H72.9c-.444 0-.81-.138-1.099-.415-.29-.275-.435-.631-.435-1.067M93 39.965c1.184 0 2.144-.447 2.883-1.34.737-.894 1.106-2.074 1.106-3.54 0-1.498-.385-2.714-1.155-3.65-.77-.932-1.715-1.4-2.834-1.4-1.184 0-2.144.443-2.883 1.329-.737.887-1.106 2.062-1.106 3.528 0 1.498.385 2.717 1.155 3.66.77.942 1.715 1.413 2.834 1.413M93 44c-2.692 0-4.865-.825-6.519-2.476C84.826 39.874 84 37.67 84 34.915c0-2.48.81-4.586 2.433-6.317C88.054 26.866 90.243 26 93 26c2.692 0 4.865.822 6.519 2.464 1.655 1.644 2.481 3.842 2.481 6.596 0 2.481-.81 4.592-2.433 6.331C97.946 43.131 95.757 44 93 44M110.06 34.41h1.116c.658 0 1.217-.23 1.673-.69.457-.46.685-1.05.685-1.77 0-.703-.211-1.277-.634-1.72-.422-.443-.989-.665-1.699-.665h-1.14a.663.663 0 00-.483.2.646.646 0 00-.202.477v3.516c0 .184.067.338.202.463a.683.683 0 00.482.189m5.731 2.184l3.93 5.522c.185.252.279.52.279.804 0 .302-.105.557-.318.766-.211.209-.493.314-.848.314h-3.17a2.13 2.13 0 01-.824-.188c-.295-.126-.51-.289-.647-.49l-3.499-5.397c-.203-.302-.44-.453-.71-.453-.406 0-.608.26-.608.779v4.192c0 .437-.153.803-.457 1.105-.304.301-.676.452-1.116.452h-2.232c-.438 0-.81-.151-1.115-.452a1.496 1.496 0 01-.456-1.105V27.582c0-.436.153-.808.456-1.118.304-.309.677-.464 1.115-.464h7.582c1.725 0 3.114.502 4.171 1.507 1.056 1.004 1.585 2.217 1.585 3.64 0 .986-.245 1.879-.735 2.673-.49.795-1.183 1.41-2.08 1.845l-.1.05c-.27.118-.406.26-.406.427 0 .101.067.251.203.452M132.73 36.845h-3.15a.605.605 0 00-.452.201.668.668 0 00-.19.477v2.009c0 .184.062.342.19.477.127.134.279.2.453.2h5.988c.414 0 .755.146 1.026.439.27.294.405.657.405 1.092v.778c0 .437-.135.792-.405 1.069a1.38 1.38 0 01-1.026.413h-10.09a1.39 1.39 0 01-1.05-.452 1.544 1.544 0 01-.429-1.105V27.582c0-.436.142-.807.428-1.118.286-.309.637-.464 1.05-.464h9.853c.413 0 .756.138 1.026.414.27.276.405.633.405 1.067v.854c0 .435-.135.787-.405 1.054-.27.268-.613.402-1.026.402h-5.75a.607.607 0 00-.453.2.668.668 0 00-.19.477v2.009c0 .184.062.34.19.464a.624.624 0 00.453.189h3.15a.97.97 0 01.716.288c.19.194.286.45.286.766v1.606c0 .319-.092.574-.275.767-.182.192-.425.288-.728.288M151.73 30.784l-.316-.218c-1.073-.74-2.206-1.11-3.4-1.11-.738 0-1.296.124-1.674.373-.377.25-.566.568-.566.955 0 .66.448 1.16 1.343 1.497.475.178 1.34.444 2.597.798 1.256.355 2.227.692 2.912 1.015 2.249 1.014 3.374 2.472 3.374 4.372 0 1.628-.707 2.957-2.122 3.988-1.415 1.03-3.36 1.546-5.838 1.546-1.633 0-3.132-.283-4.493-.846-1.363-.564-2.412-1.241-3.15-2.03-.264-.274-.397-.563-.397-.87 0-.305.16-.571.476-.798l1.475-1.182c.246-.21.519-.315.818-.315.298 0 .615.153.948.46l.158.145c1.442 1.32 2.873 1.98 4.297 1.98.738 0 1.326-.129 1.766-.386.44-.258.66-.595.66-1.015 0-.789-.854-1.417-2.558-1.884-.247-.08-.66-.202-1.239-.362a92.8 92.8 0 01-1.358-.388 15.927 15.927 0 01-1.172-.41 9.364 9.364 0 01-1.238-.58c-1.618-.902-2.426-2.199-2.426-3.89 0-1.497.663-2.81 1.99-3.937 1.327-1.128 3.142-1.692 5.443-1.692 1.317 0 2.543.19 3.677.567 1.133.379 2.034.794 2.701 1.245.58.37.87.757.87 1.16 0 .338-.166.636-.5.893l-1.265 1.064c-.247.21-.52.314-.817.314-.195 0-.52-.153-.976-.459" fill="#0466AF"/><path d="M17.993 25.221c.065.835-.339 1.478-1.087 1.894-3.987 2.217-7.977 4.43-11.974 6.629-.848.468-1.559.303-2.112-.563a20.88 20.88 0 01-2.74-6.545c-.29-1.239.215-1.859 1.49-2.007 4.597-.533 9.194-1.066 13.79-1.606 1.53-.179 2.611.69 2.633 2.198" fill="#A34A95"/><g transform="translate(0 10)"><mask id="b" fill="#fff"><use xlink:href="#a"/></mask><path d="M14.963 10.597c-2.814-.314-6.03-.67-9.245-1.033-1.472-.164-2.94-.35-4.412-.509C.158 8.931-.15 8.205.062 7.268.586 4.943 1.494 2.762 2.883.79 3.404.05 4.047-.144 4.899.312 8.768 2.387 12.65 4.436 16.52 6.508c1.291.692 1.69 1.536 1.352 2.71-.286 1-1.065 1.433-2.91 1.379" fill="#E84765" mask="url(#b)"/></g><path d="M17.192 42.999c-2.34-.524-4.602-1.434-6.629-2.96-.733-.551-.751-1.489-.05-2.207 3.019-3.09 6.057-6.16 9.11-9.21.77-.767 1.67-.84 2.516-.136.83.69 1.083 1.621.658 2.709a3372.094 3372.094 0 01-4.263 10.866c-.242.61-.664.96-1.342.938" fill="#0466AF"/><path d="M23 13.682c-.084.924-.444 1.605-1.137 2.022-.746.447-1.486.399-2.135-.22a144.658 144.658 0 01-3.113-3.076 633.217 633.217 0 01-5.884-6.039c-1.045-1.09-.972-1.876.234-2.714a16.418 16.418 0 015.97-2.604c.69-.15 1.244.008 1.538.758C19.938 5.542 21.39 9.28 22.84 13.02c.085.22.114.468.16.661" fill="#E84765"/><path d="M25.45 42c-1.056-.077-1.554-.57-1.432-1.383a594.271 594.271 0 011.628-10.088c.153-.905.81-1.406 1.799-1.51.974-.102 1.8.202 2.171 1.048 1.128 2.575 2.19 5.175 3.28 7.764.195.462.121.93-.276 1.212-2.157 1.529-4.644 2.402-7.17 2.957" fill="#5EBFC4"/><path d="M26.445 1.034c1.614.71 3.096 1.733 4.477 2.895 2.635 2.22 2.622 2.303.76 5.227-1.154 1.81-2.289 3.632-3.429 5.45-.736 1.177-1.648 1.619-2.673 1.287-1.078-.348-1.65-1.192-1.573-2.575.2-3.627.44-7.25.698-10.873.072-1.015.828-1.596 1.74-1.411" fill="#F29121"/><path d="M32.69 20.996c-1.3.047-1.964-.328-2.375-1.128-.402-.785-.462-1.668.072-2.343a213.908 213.908 0 015.788-7.03c.636-.738 1.496-.634 2.031.198 1.403 2.176 2.308 4.588 2.768 7.166.121.676-.187 1.285-.847 1.443-2.61.63-5.231 1.196-7.437 1.694" fill="#FCC750"/><path d="M32.22 23l3.186.695c1.469.323 2.94.64 4.406.97.946.214 1.337.853 1.137 1.817-.497 2.39-1.335 4.646-2.598 6.715-.606.993-1.621 1.08-2.381.179a415.252 415.252 0 01-5.486-6.653c-.59-.728-.612-1.58-.223-2.431.378-.826 1.058-1.183 1.96-1.292" fill="#83C5A0"/><path d="M55 13.965c1.184 0 2.144-.447 2.883-1.34.737-.895 1.106-2.074 1.106-3.54 0-1.499-.385-2.714-1.155-3.648-.77-.934-1.715-1.402-2.834-1.402-1.184 0-2.144.444-2.883 1.329-.737.886-1.106 2.062-1.106 3.527 0 1.499.385 2.718 1.155 3.661.77.942 1.715 1.413 2.834 1.413M55 18c-2.692 0-4.865-.825-6.519-2.476C46.826 13.874 46 11.669 46 8.915c0-2.48.81-4.586 2.433-6.317C50.054.866 52.243 0 55 0c2.692 0 4.865.822 6.519 2.464C63.174 4.108 64 6.306 64 9.061c0 2.48-.81 4.59-2.433 6.33C59.946 17.13 57.757 18 55 18M71.367 17.52V5.97a.645.645 0 00-.205-.477.67.67 0 00-.486-.2h-4.142c-.444 0-.81-.134-1.1-.402-.29-.268-.434-.62-.434-1.054V2.482c0-.435.144-.792.435-1.068.29-.276.655-.414 1.099-.414h14.932c.443 0 .81.138 1.1.414.29.276.434.633.434 1.068v1.356c0 .435-.144.786-.434 1.054-.29.268-.657.401-1.1.401h-4.142a.81.81 0 00-.46.139.42.42 0 00-.205.363v11.65c0 .435-.153.802-.46 1.104-.307.301-.681.451-1.125.451H72.9c-.443 0-.809-.137-1.099-.413-.29-.276-.434-.632-.434-1.068M93.083 13.965c1.423 0 2.498-.66 3.226-1.981.299-.58.72-.87 1.266-.87h2.159c.348 0 .645.09.893.266.248.177.373.444.373.797 0 .613-.244 1.305-.733 2.078-.488.774-1.021 1.394-1.6 1.86C97.145 17.373 95.233 18 92.934 18c-2.746 0-4.922-.87-6.526-2.61C84.803 13.652 84 11.517 84 8.988c0-1.627.344-3.117 1.03-4.47.687-1.353 1.716-2.444 3.09-3.273C89.493.415 91.097 0 92.934 0c2.267 0 4.153.612 5.66 1.836.578.468 1.123 1.087 1.636 1.861.513.773.77 1.481.77 2.126 0 .354-.12.62-.36.797-.24.178-.533.266-.881.266h-2.184c-.546 0-.967-.29-1.266-.87-.728-1.32-1.803-1.981-3.226-1.981-1.092 0-2.023.427-2.792 1.28-.768.854-1.153 2.071-1.153 3.648 0 1.58.385 2.808 1.153 3.685.77.878 1.7 1.317 2.792 1.317" fill="#0466AF"/></g></svg>