<svg width="20" height="20" xmlns="http://www.w3.org/2000/svg"><g fill="#F5A623" fill-rule="evenodd"><path d="M19.702 13.876a.996.996 0 00-.718-.648l-5.986-1.367a1 1 0 00-.918.26c-.139.13-.15.139-.797 1.376a9.885 9.885 0 01-4.859-4.878c1.267-.639 1.277-.639 1.407-.788a.997.997 0 00.26-.918L6.723.998a.998.998 0 00-.649-.719A3.784 3.784 0 005.357.1a3.93 3.93 0 00-.768-.1A4.589 4.589 0 000 4.589 15.382 15.382 0 0015.362 19.95a4.587 4.587 0 004.59-4.588 4.337 4.337 0 00-.25-1.486z" fill-rule="nonzero"/><path d="M19.219 0h-5.374a.737.737 0 00-.54.228.737.737 0 00-.228.54c0 .208.076.388.228.54l1.727 1.727-3.982 3.982a.379.379 0 000 .552l1.367 1.367a.38.38 0 00.552 0l3.983-3.982 1.727 1.727a.738.738 0 00.54.228.738.738 0 00.54-.228.737.737 0 00.227-.54V.767a.737.737 0 00-.227-.54.738.738 0 00-.54-.227z"/></g></svg>