<svg width="28" height="28" xmlns="http://www.w3.org/2000/svg"><g fill="#FFF" stroke="#FFF" stroke-width="2" fill-rule="evenodd"><path d="M6.41 1c.29.01.58.048.864.114.357.056.63.124.895.219h0L10.351 9.9c-.281.567-.341.535-1.522 1.13a34.1 34.1 0 00-.75.388c.075.278.16.555.255.831 1.18 3.42 3.781 6.052 7.043 7.555.288.133.58.256.873.369.11-.206.252-.47.431-.813.68-1.298.748-1.493.873-1.621h0l8.797 1.754c.388.545.462.83.51 1.112.048.298.071.6.07.903a5.42 5.42 0 01-3.348 5.01 5.42 5.42 0 01-2.074.414A20.536 20.536 0 011 6.424 5.424 5.424 0 016.41 1z" fill-rule="nonzero"/><path d="M26.906 1c.02 0 .035.012.05.027.013.013.025.028.025.047h0v7.524c0 .02-.012.034-.026.048-.014.014-.029.026-.05.026-.02 0-.034-.012-.048-.026h0l-3.125-3.125-5.684 5.684-1.096-.78 5.463-6.221-3.08-3.08c-.014-.014-.027-.029-.027-.05 0-.02.013-.034.027-.048h0z"/></g></svg>