<svg width="32" height="32" xmlns="http://www.w3.org/2000/svg"><g fill="none" fill-rule="evenodd"><path d="M0 0h32v32H0z"/><path d="M9.333 20h9.334v2.667H9.333V20zm0-5.333h13.334v2.666H9.333v-2.666zm0-5.334h13.334V12H9.333V9.333zm16-5.333H19.76C19.2 2.453 17.733 1.333 16 1.333c-1.733 0-3.2 1.12-3.76 2.667H6.667c-.187 0-.36.013-.534.053-.52.107-.986.374-1.346.734-.24.24-.44.533-.574.853A2.569 2.569 0 004 6.667v18.666c0 .36.08.72.213 1.04.134.32.334.6.574.854.36.36.826.626 1.346.733.174.027.347.04.534.04h18.666C26.8 28 28 26.8 28 25.333V6.667C28 5.2 26.8 4 25.333 4zM16 3.667c.547 0 1 .453 1 1 0 .546-.453 1-1 1-.547 0-1-.454-1-1 0-.547.453-1 1-1zm9.333 21.666H6.667V6.667h18.666v18.666z" fill="#0F73E7" fill-rule="nonzero"/></g></svg>