<?xml version="1.0" encoding="UTF-8"?>
<svg width="24px" height="26px" viewBox="0 0 24 26" version="1.1" xmlns="http://www.w3.org/2000/svg" xmlns:xlink="http://www.w3.org/1999/xlink">
    <title>fa-bell</title>
    <defs>
        <filter id="filter-1">
            <feColorMatrix in="SourceGraphic" type="matrix" values="0 0 0 0 0.160784 0 0 0 0 0.474510 0 0 0 0 1.000000 0 0 0 1.000000 0"></feColorMatrix>
        </filter>
    </defs>
    <g id="Symbols" stroke="none" stroke-width="1" fill="none" fill-rule="evenodd">
        <g id="fa-bell" transform="translate(-5.000000, -2.000000)" filter="url(#filter-1)">
            <g transform="translate(5.000000, 2.000000)">
                <path d="M0.614857143,21.7771429 C0.973714286,22.136 1.41028571,22.3154286 1.89714286,22.3154286 L8.31085714,22.3154286 C8.31085714,23.3417143 8.66971429,24.1885714 9.38857143,24.9062857 C10.1062857,25.624 10.9782857,25.984 11.9794286,25.984 C13.0045714,25.984 13.8514286,25.624 14.5702857,24.9062857 C15.288,24.1885714 15.6468571,23.3417143 15.6468571,22.3154286 L22.0605714,22.3154286 C22.5474286,22.3154286 22.984,22.136 23.3428571,21.7771429 C23.7017143,21.4171429 23.8811429,20.9817143 23.8811429,20.4937143 C22.0605714,18.9554286 20.7005714,17.0571429 19.7771429,14.7988571 C18.8537143,12.5417143 18.392,10.1565714 18.392,7.66742857 C18.392,6.07771429 17.9302857,4.84571429 17.032,3.92228571 C16.1085714,2.97371429 14.8514286,2.43542857 13.2617143,2.22971429 C13.3382857,2.07542857 13.3645714,1.896 13.3645714,1.71657143 C13.3645714,1.33142857 13.2354286,0.998857143 12.9542857,0.741714286 C12.6971429,0.459428571 12.3634286,0.331428571 11.9794286,0.331428571 C11.5942857,0.331428571 11.2868571,0.459428571 11.0297143,0.741714286 C10.7474286,0.998857143 10.6194286,1.33142857 10.6194286,1.71657143 C10.6194286,1.896 10.6445714,2.07542857 10.7222857,2.22971429 C9.13142857,2.43542857 7.87428571,2.97371429 6.95085714,3.92228571 C6.02742857,4.84571429 5.56571429,6.07771429 5.56571429,7.66742857 C5.56571429,10.1565714 5.104,12.5417143 4.18057143,14.7988571 C3.25714286,17.0571429 1.89714286,18.9554286 0.0765714286,20.4937143 C0.0765714286,20.9817143 0.256,21.4171429 0.614857143,21.7771429 L0.614857143,21.7771429 Z M9.696,22.0845714 C9.85028571,22.0845714 9.92685714,22.1611429 9.92685714,22.3154286 C9.92685714,22.88 10.1314286,23.3668571 10.5428571,23.752 C10.9268571,24.1622857 11.4148571,24.368 11.9794286,24.368 C12.1325714,24.368 12.2102857,24.4445714 12.2102857,24.5988571 C12.2102857,24.752 12.1325714,24.8297143 11.9794286,24.8297143 C11.2868571,24.8297143 10.696,24.5725714 10.2091429,24.0857143 C9.72114286,23.5977143 9.46514286,23.008 9.46514286,22.3154286 C9.46514286,22.1611429 9.54171429,22.0845714 9.696,22.0845714 L9.696,22.0845714 Z" id="Fill-180" fill="#FFFFFF"></path>
            </g>
        </g>
    </g>
</svg>