<?xml version="1.0" encoding="UTF-8"?>
<svg width="21px" height="24px" viewBox="0 0 21 24" version="1.1" xmlns="http://www.w3.org/2000/svg" xmlns:xlink="http://www.w3.org/1999/xlink">
    <title>Fill 226</title>
    <g id="Symbols" stroke="none" stroke-width="1" fill="none" fill-rule="evenodd">
        <g id="icon/Font-Awesome/fa-file-pdf-o" transform="translate(1.000000, 1.000000)" fill="#0F73E7">
            <g id="Fill-226" transform="translate(-0.130000, -0.480000)">
                <path d="M0.359,22.087 C0.584,22.333 0.875,22.446 1.212,22.446 L18.024,22.446 C18.361,22.446 18.652,22.333 18.877,22.087 C19.124,21.862 19.236,21.57 19.236,21.234 L19.236,6.823 C19.236,6.487 19.146,6.105 18.989,5.701 C18.809,5.32 18.607,4.983 18.383,4.758 L14.478,0.853 C14.253,0.628 13.916,0.426 13.535,0.247 C13.131,0.09 12.749,0 12.412,0 L1.212,0 C0.875,0 0.584,0.112 0.359,0.359 C0.112,0.584 -6.21724894e-14,0.875 -6.21724894e-14,1.212 L-6.21724894e-14,21.234 C-6.21724894e-14,21.57 0.112,21.862 0.359,22.087 L0.359,22.087 Z M1.594,1.594 L11.223,1.594 L11.223,6.801 C11.223,7.138 11.335,7.43 11.582,7.654 C11.806,7.901 12.098,8.013 12.435,8.013 L17.642,8.013 L17.642,20.852 L1.594,20.852 L1.594,1.594 L1.594,1.594 Z M3.277,18.944 C3.322,18.967 3.344,18.989 3.367,18.989 L3.659,19.146 C3.771,19.214 3.883,19.236 4.018,19.236 C4.758,19.236 5.768,18.136 7.048,15.959 C8.462,15.465 10.101,15.106 11.964,14.904 C12.48,15.196 13.018,15.398 13.58,15.577 C14.141,15.734 14.635,15.824 15.039,15.824 C15.577,15.824 15.869,15.667 15.914,15.33 C15.936,15.33 15.936,15.308 15.936,15.308 L15.959,15.286 C16.071,15.039 16.071,14.814 15.936,14.635 C15.689,14.231 14.949,14.029 13.714,14.029 C13.22,14.029 12.727,14.051 12.233,14.118 C11.829,13.871 11.47,13.625 11.2,13.423 C10.437,12.794 9.831,11.806 9.36,10.437 C9.472,9.854 9.517,9.046 9.539,8.036 L9.539,7.654 C9.539,7.609 9.539,7.587 9.517,7.542 C9.539,7.542 9.562,7.497 9.584,7.452 C9.652,7.07 9.607,6.779 9.472,6.599 C9.36,6.487 9.225,6.419 9.023,6.419 L8.754,6.419 C8.485,6.419 8.305,6.577 8.215,6.913 C8.103,7.34 8.08,7.878 8.148,8.507 C8.193,9.158 8.327,9.831 8.529,10.505 C8.215,11.56 7.789,12.659 7.227,13.782 C6.756,14.724 6.307,15.532 5.881,16.251 C5.881,16.228 5.881,16.228 5.858,16.206 C5.768,16.071 5.679,16.049 5.567,16.116 C4.848,16.498 4.31,16.902 3.905,17.328 C3.524,17.777 3.277,18.159 3.21,18.473 C3.187,18.697 3.21,18.854 3.277,18.944 L3.277,18.944 Z M4.601,17.62 C4.893,17.261 5.275,16.902 5.701,16.587 C4.983,17.687 4.399,18.361 3.973,18.563 C4.085,18.316 4.287,18.001 4.601,17.62 L4.601,17.62 Z M7.968,14.275 C8.44,13.355 8.776,12.525 9.001,11.806 C9.427,12.727 9.966,13.445 10.617,14.006 C10.639,14.051 10.707,14.118 10.819,14.186 C10.909,14.253 10.954,14.298 10.976,14.298 C9.719,14.522 8.529,14.859 7.407,15.308 C7.542,15.083 7.721,14.724 7.968,14.275 L7.968,14.275 Z M8.956,7.048 L8.956,7.025 L8.978,7.003 C9.068,7.115 9.135,7.25 9.135,7.43 L9.135,7.452 L9.158,7.474 L9.158,7.497 C9.135,7.542 9.113,7.564 9.113,7.609 C9.046,7.946 9.023,8.125 9.023,8.148 C8.978,8.44 8.933,8.642 8.933,8.686 C8.821,7.946 8.844,7.385 8.956,7.048 L8.956,7.048 Z M12.816,1.683 C13.063,1.773 13.22,1.863 13.333,1.975 L17.261,5.903 C17.373,6.015 17.463,6.173 17.553,6.419 L12.816,6.419 L12.816,1.683 L12.816,1.683 Z M15.51,15.106 L15.532,15.128 C15.487,15.151 15.42,15.151 15.308,15.151 C14.904,15.151 14.388,15.039 13.737,14.814 C14.724,14.814 15.308,14.904 15.51,15.106 L15.51,15.106 Z" id="Fill-225"></path>
            </g>
        </g>
    </g>
</svg>