<?xml version="1.0" encoding="UTF-8"?>
<svg width="28px" height="24px" viewBox="0 0 28 24" version="1.1" xmlns="http://www.w3.org/2000/svg" xmlns:xlink="http://www.w3.org/1999/xlink">
    <title>Combined Shape</title>
    <defs>
        <path d="M26.1953892,14.128267 L26.1953892,27.3300086 L3.97720365,27.3300086 L3.97720365,22.3807334 L12.2296767,14.128267 L19.212533,21.1111232 L26.1953892,14.128267 Z M28.4716648,4.66999141 C28.9674784,4.66999141 29.3694148,5.07192778 29.3694148,5.56774141 L29.3694148,11.3899028 C29.3694148,11.8857164 28.9674784,12.2876528 28.4716648,12.2876528 C28.2335667,12.2876528 28.0052204,12.1930687 27.8368596,12.0247079 L25.8785852,10.0659914 L20.1647406,15.7790809 C19.6697855,16.274036 18.8853945,16.303151 18.3563882,15.8664259 L18.2603253,15.7790809 L12.2295921,9.74759125 L4.92941791,17.0486911 C4.43446283,17.5436462 3.65007183,17.5727612 3.12106547,17.1360361 L3.02500257,17.0486911 C2.53004749,16.553736 2.50093249,15.769345 2.93765756,15.2403387 L3.02500257,15.1442758 L11.277469,6.89180931 C11.7724241,6.39685423 12.5568151,6.36773922 13.0858215,6.80446429 L13.1818844,6.89180931 L19.2124483,12.9216168 L23.9725852,8.15999141 L22.0146983,6.20254653 C21.6641051,5.85195334 21.6641051,5.28352948 22.0146983,4.9329363 C22.1830591,4.76457552 22.4114053,4.66999141 22.6495034,4.66999141 L28.4716648,4.66999141 Z" id="path-1"></path>
    </defs>
    <g id="Symbols" stroke="none" stroke-width="1" fill="none" fill-rule="evenodd">
        <g id="icon/trading" transform="translate(-2.000000, -4.000000)">
            <mask id="mask-2" fill="white">
                <use xlink:href="#path-1"></use>
            </mask>
            <use id="Combined-Shape" stroke="#7B8099" fill="#7B8099" fill-rule="nonzero" xlink:href="#path-1"></use>
        </g>
    </g>
</svg>