<?xml version="1.0" encoding="UTF-8"?>
<svg width="28px" height="28px" viewBox="0 0 28 28" version="1.1" xmlns="http://www.w3.org/2000/svg" xmlns:xlink="http://www.w3.org/1999/xlink">
    <title>Group 4</title>
    <g id="Symbols" stroke="none" stroke-width="1" fill="none" fill-rule="evenodd">
        <g id="Topbar/call_not_started" transform="translate(-1278.000000, -20.000000)" fill="#FFFFFF" stroke="#FFFFFF" stroke-width="2">
            <g id="Group-3" transform="translate(1022.000000, 10.000000)">
                <g id="Group-6" transform="translate(228.000000, 0.000000)">
                    <g id="Group-11" transform="translate(16.000000, 10.000000)">
                        <g id="Group-4" transform="translate(12.000000, 0.000000)">
                            <path d="M6.42476881,1.0000233 C6.71688596,1.00988845 7.00738456,1.04810582 7.29214442,1.11413491 C7.6502731,1.17045603 7.92437836,1.23896143 8.18984239,1.33375214 L8.18984239,1.33375214 L10.3787718,9.92331206 C10.0935967,10.4746713 9.87387095,10.5439144 8.7477741,11.1112636 C8.41518238,11.2788297 8.16456081,11.4087141 7.96986467,11.5096483 C8.05773124,11.7961328 8.1558066,12.0807037 8.26422529,12.3629286 C9.55516405,15.7233745 12.1580502,18.349079 15.4156984,19.8500922 C15.7038047,19.9828417 15.9952703,20.1059825 16.2896319,20.2191253 C16.4004277,20.0116227 16.5410728,19.747287 16.719902,19.4060785 C17.3686922,18.1681776 17.4714119,17.9193121 17.5885166,17.7876675 L17.5885166,17.7876675 L26.415944,19.5379244 C26.806609,20.0864911 26.8808667,20.3722306 26.9286931,20.6543379 C26.9766643,20.9533146 27.0004162,21.2556589 27,21.5600027 C27,22.2743308 26.8595069,22.981559 26.5858806,23.6417723 C26.3125238,24.3018397 25.9117714,24.901445 25.4069739,25.4064482 C24.9016739,25.9115356 24.3020635,26.3122857 23.6417408,26.5857445 C22.9817584,26.8592714 22.2743047,27 21.5612517,27.0000008 C16.1103876,26.9929176 10.8845406,24.8242453 7.03007273,20.969733 C3.17561022,17.1154857 1.00708248,11.8896776 1,6.43997252 C1,4.99719866 1.57316017,3.61352812 2.5933713,2.59332398 C3.60994342,1.57673797 4.98746698,1.00406338 6.42476881,1.0000233 Z" id="Vector_3-Copy" fill-rule="nonzero"></path>
                            <path d="M25.422,1.253 L26.435129,2.19369156 L20.7762693,8.63690002 L23.903771,11.7644017 L16.1723163,11.9230769 L16.0769231,4.15930091 L19.4069382,7.26810973 L25.422,1.253 Z" id="Shape"></path>
                        </g>
                    </g>
                </g>
            </g>
        </g>
    </g>
</svg>