<?xml version="1.0" encoding="UTF-8"?>
<svg width="21px" height="20px" viewBox="0 0 21 20" version="1.1" xmlns="http://www.w3.org/2000/svg" xmlns:xlink="http://www.w3.org/1999/xlink">
    <title>Inbound</title>
    <g id="Symbols" stroke="none" stroke-width="1" fill="none" fill-rule="evenodd">
        <g id="Call-table-row" transform="translate(-32.000000, -15.000000)" fill="#417505">
            <g id="Group-4" transform="translate(32.340426, 15.000000)">
                <path d="M19.9602244,13.9100316 C19.9046413,13.7494586 19.8086666,13.6056855 19.6812364,13.4919757 C19.553985,13.3780891 19.3995676,13.2983331 19.2324607,13.2599583 L13.1687163,11.8899587 C13.0041116,11.8531754 12.8327154,11.8575965 12.6702554,11.903045 C12.5079741,11.9483168 12.3596332,12.033378 12.2388159,12.1500942 C12.0974453,12.2800735 12.087258,12.2899766 11.4304477,13.5299969 C9.25055233,12.5361415 7.5040624,10.800962 6.5085703,8.63994552 C7.7919866,7.99995218 7.80217387,7.99995218 7.93353593,7.84998966 C8.0514937,7.73062091 8.13728117,7.58384155 8.18321321,7.42309164 C8.22914526,7.26234172 8.23361335,7.09292652 8.19626006,6.93005449 L6.81168603,1 C6.77290294,0.83469704 6.69229846,0.681869671 6.577379,0.555904692 C6.46245953,0.429939712 6.31697828,0.334992924 6.1548757,0.279994878 C5.91878144,0.196578227 5.67500204,0.136292587 5.42714774,0.0999868022 C5.17171554,0.0413811668 4.91104674,0.00788717965 4.64896602,0 C3.41598559,0 2.23349467,0.484637126 1.36166163,1.34731066 C0.489810713,2.2099842 0,3.38001017 0,4.60001185 C0.00536171692,8.68274143 1.64683348,12.5967985 4.56446536,15.483577 C7.48207937,18.3705324 11.4377754,19.9948316 15.5637953,20.0001369 C16.1743161,20.0001369 16.7789391,19.8811218 17.3429917,19.6498117 C17.9070443,19.4186784 18.4194457,19.079848 18.8512426,18.6527731 C19.2828609,18.2255214 19.6252958,17.7185137 19.858888,17.1603985 C20.0926588,16.6022833 20.212766,16.0042016 20.212766,15.4001073 C20.2131187,15.145454 20.1929229,14.8913312 20.1521739,14.6400379 C20.1096376,14.391574 20.0454757,14.1473544 19.9602244,13.9100316 Z" id="Vector_3-Copy" fill-rule="nonzero"></path>
                <path d="M20.199063,1.76330551 C20.199063,1.65936515 20.158592,1.56749719 20.0776499,1.48740716 L18.6956836,0.119987809 C18.6148903,0.0398977869 18.522045,-3.55271368e-15 18.4169989,-3.55271368e-15 C18.311804,-3.55271368e-15 18.2189587,0.0400450113 18.1381655,0.119987809 L14.1132331,4.10225806 L12.3679203,2.37502251 C12.2145172,2.22308702 12.0323976,2.14711928 11.8223054,2.14711928 C11.6122132,2.14711928 11.4303912,2.22308702 11.2768394,2.37502251 C11.1232875,2.52695799 11.0465116,2.70686609 11.0465116,2.91474681 L11.0465116,8.28843398 C11.0465116,8.49646193 11.1232875,8.67637003 11.2768394,8.82830551 C11.4303912,8.980241 11.6122132,9.05620874 11.8223054,9.05620874 L17.2531595,9.05620874 C17.4632517,9.05620874 17.6453713,8.980241 17.7987743,8.82830551 C17.9523261,8.67637003 18.0292508,8.49646193 18.0292508,8.28843398 C18.0292508,8.08055326 17.9523261,7.90064516 17.7987743,7.74870968 L16.0531639,6.02147412 L20.0780963,2.03920386 C20.158592,1.95926107 20.199063,1.86724587 20.199063,1.76330551 L20.199063,1.76330551 Z" id="Shape"></path>
            </g>
        </g>
    </g>
</svg>