<?xml version="1.0" encoding="utf-8"?>
<svg width="320px" height="204px" viewBox="0 0 320 204" version="1.1" xmlns:xlink="http://www.w3.org/1999/xlink" xmlns="http://www.w3.org/2000/svg">
  <desc>Created with Lunacy</desc>
  <defs>
    <linearGradient x1="0.5" y1="0" x2="0.5" y2="1" id="gradient_1">
      <stop offset="0.28392702" stop-color="#FFFFFF" stop-opacity="0.5019608" />
      <stop offset="0.5122378" stop-color="#A0A0A0" stop-opacity="0.5019608" />
      <stop offset="0.7873962" stop-color="#FFFFFF" stop-opacity="0.5019608" />
    </linearGradient>
    <linearGradient x1="1" y1="0.5" x2="0" y2="0.5" id="gradient_2">
      <stop offset="0" stop-color="#7C7C7C" stop-opacity="0.5019608" />
      <stop offset="1" stop-color="#000000" stop-opacity="0.5019608" />
    </linearGradient>
    <linearGradient x1="1" y1="0.5" x2="0" y2="0.5" id="gradient_3">
      <stop offset="0" stop-color="#6B6B6B" stop-opacity="0.4117647" />
      <stop offset="1" stop-color="#000000" stop-opacity="0.5019608" />
    </linearGradient>
    <path d="M94 46.5C94 72.1812 72.9574 93 47 93C21.0426 93 0 72.1812 0 46.5C0 20.8188 21.0426 0 47 0C72.9574 0 94 20.8188 94 46.5ZM70.5 46.5C70.5 59.3406 59.9787 69.75 47 69.75C34.0213 69.75 23.5 59.3406 23.5 46.5C23.5 33.6594 34.0213 23.25 47 23.25C59.9787 23.25 70.5 33.6594 70.5 46.5Z" id="path_1" />
    <path d="M48.5625 9.74359L48.5625 20.9388L72.8438 20.9388L72.8438 34.4605C72.8438 39.8417 68.4844 44.2041 63.1069 44.2041L48.5625 44.2041L48.5625 85.8629C48.5625 88.5535 50.7422 90.7347 53.4309 90.7347L64.2632 90.7347C69.6407 90.7347 74 95.097 74 100.478L74 114L44.9112 114C34.1562 114 25.4375 105.275 25.4375 94.5128L25.4375 44.2041L0 44.2041L0 30.6824C0 25.3011 4.35933 20.9388 9.73684 20.9388L25.4375 20.9388L25.4375 0L38.8257 0C44.2032 -9.88517e-16 48.5625 4.36235 48.5625 9.74359Z" transform="translate(97 0)" id="path_2" />
    <path d="M48.5625 0L72.8438 0L72.8438 13.5217C72.8438 18.903 68.4844 23.2653 63.1069 23.2653L48.5625 23.2653L25.4375 23.2653L0 23.2653L0 9.74359C0 4.36235 4.35933 2.58297e-15 9.73684 0L25.4375 0L48.5625 0Z" transform="translate(97 20.938774)" id="path_3" />
    <path d="M0 0L31 0L31 3.83333C31 14.4188 22.3255 23 11.625 23L0 23L0 0Z" transform="translate(48 21)" id="path_4" />
    <rect width="320" height="204" id="artboard_1" />
    <clipPath id="clip_1">
      <use xlink:href="#artboard_1" clip-rule="evenodd" />
    </clipPath>
  </defs>
  <g id="LOGO" clip-path="url(#clip_1)">
    <g id="Group" transform="translate(28 0)">
      <g id="Group-5" transform="translate(0 184)">
        <path d="M0 0L265 0L265 20L0 20L0 0Z" id="Rectangle" fill="#00488F" stroke="none" />
        <g id="Group-27" transform="translate(7 1)">
          <path d="M11.3054 12.9231L11.2876 5.17065L7.63066 11.5583L6.33658 11.5583L2.69871 5.3368L2.69871 12.9231L0 12.9231L0 0L2.37793 0L7.0273 8.02935L11.6057 0L13.9659 0L14 12.9231L11.3054 12.9231Z" transform="translate(0 1.0769231)" id="Shape" fill="#FFFFFF" stroke="none" />
          <path d="M0.692438 7.35C1.1536 8.08365 1.79417 8.65846 2.61556 9.07173C3.43556 9.48635 4.36208 9.69231 5.39373 9.69231C6.42678 9.69231 7.34909 9.48769 8.16348 9.07173C8.97646 8.65981 9.61423 8.08365 10.0768 7.35C10.538 6.61365 10.7692 5.78038 10.7692 4.8475C10.7692 3.91462 10.538 3.08135 10.0768 2.345C9.61423 1.60865 8.97646 1.03654 8.16348 0.620577C7.34909 0.207308 6.42537 0 5.39373 0C4.36068 0 3.43556 0.207308 2.61556 0.620577C1.79417 1.03519 1.1536 1.60865 0.692438 2.345C0.23128 3.08135 0 3.91462 0 4.8475C0 5.78038 0.23128 6.61365 0.692438 7.35ZM7.89052 4.84616C7.89052 5.64039 7.65644 6.27039 7.18967 6.74423C6.72151 7.21808 6.12298 7.455 5.3955 7.45366C4.66662 7.45366 4.06529 7.21673 3.59152 6.74423C3.11775 6.27173 2.88086 5.64039 2.88086 4.84616Q2.88086 3.65481 3.59152 2.94808C4.06529 2.47558 4.66522 2.23866 5.3955 2.23866C6.12298 2.23866 6.72151 2.47423 7.18967 2.94808C7.65644 3.41789 7.89052 4.05192 7.89052 4.84616Z" transform="translate(16.154297 4.3076935)" id="Shape" fill="#FFFFFF" fill-rule="evenodd" stroke="none" />
          <path d="M4.3439 0.35503C4.95553 0.117433 5.6624 0 6.46154 0L6.46154 2.55758C6.12671 2.533 5.90051 2.52071 5.78592 2.52071C4.92131 2.52071 4.2442 2.74192 3.7546 3.18707C3.26351 3.62949 3.01945 4.29586 3.01945 5.1848L3.01945 9.69231L0 9.69231L0 0.142012L2.88403 0.142012L2.88403 1.40373C3.24416 0.942194 3.73079 0.592626 4.3439 0.35503Z" transform="translate(28 4.3076925)" id="Shape" fill="#FFFFFF" stroke="none" />
          <path d="M2.68376 5.61807L9.64103 5.61807C9.67521 5.16313 9.69231 4.91682 9.69231 4.88182C9.69231 3.90061 9.48323 3.04189 9.06772 2.30026C8.65089 1.56132 8.0789 0.990632 7.34911 0.593571C6.62064 0.199203 5.80539 0 4.90467 0C3.98159 0 3.14661 0.207279 2.40105 0.620491C1.65417 1.03505 1.06772 1.61381 0.640368 2.35275C0.213018 3.09438 0 3.92484 0 4.84817C0 5.78093 0.215648 6.61408 0.649573 7.35033C1.08218 8.08388 1.69757 8.6586 2.49441 9.07182C3.29257 9.48772 4.21039 9.69231 5.24786 9.69231Q7.74293 9.69231 9.04274 8.17002L7.62393 6.59524C7.3044 6.91154 6.95989 7.14305 6.5904 7.28706C6.21959 7.43378 5.79487 7.50511 5.31624 7.50511C4.62064 7.50511 4.03945 7.33687 3.57265 6.99768C3.10454 6.66119 2.80868 6.20222 2.68376 5.61807ZM2.64941 4.02444C2.74014 3.41741 2.99129 2.93959 3.40155 2.58964C3.81181 2.24103 4.31805 2.06471 4.92292 2.06337C5.51595 2.06337 6.01694 2.24103 6.42719 2.59637C6.83745 2.9544 7.0886 3.43087 7.17933 4.02444L2.64941 4.02444Z" transform="translate(35.538086 4.3076935)" id="Shape" fill="#FFFFFF" fill-rule="evenodd" stroke="none" />
          <path d="M8.61539 4.18116C8.61539 2.77981 8.23793 1.73386 7.4856 1.03924C6.73199 0.34463 5.65279 -0.00267677 4.24932 1.55326e-05C3.51775 1.55326e-05 2.80694 0.100977 2.11558 0.297515C1.42422 0.496745 0.831446 0.775398 0.337248 1.13886L1.28154 3.04501C1.60712 2.77578 2.00403 2.56308 2.47099 2.40558C2.93795 2.24809 3.41269 2.16866 3.89521 2.16866C4.59306 2.16866 5.11449 2.32885 5.46341 2.64924C5.81104 2.97231 5.98615 3.43 5.98615 4.02366L3.89521 4.02366C2.56827 4.02366 1.58766 4.27404 0.952077 4.77615C0.317791 5.27827 0 5.9675 0 6.84249C0 7.38903 0.134899 7.88172 0.404697 8.31249C0.674496 8.74326 1.06492 9.08383 1.57599 9.32749C2.08705 9.57114 2.6915 9.69229 3.38804 9.69229C4.73703 9.69229 5.65928 9.25479 6.15348 8.3798L6.15348 9.55229L8.61539 9.55229L8.61539 4.18116ZM5.98361 6.57865C5.83834 6.9973 5.59059 7.31499 5.24167 7.53037C4.89404 7.74845 4.49453 7.85614 4.04444 7.85614C3.58267 7.85614 3.22077 7.75249 2.95746 7.54787C2.69285 7.34595 2.56055 7.0673 2.56055 6.7173C2.56055 5.98096 3.10014 5.61615 4.17934 5.61615L5.98361 5.61615L5.98361 6.57865Z" transform="translate(51.692383 4.3077087)" id="Shape" fill="#FFFFFF" fill-rule="evenodd" stroke="none" />
          <path d="M2.60703 9.07047C1.78854 8.65726 1.14919 8.08253 0.688961 7.34898C0.230113 6.61274 0 5.77958 0 4.84683C0 3.91407 0.230113 3.08092 0.688961 2.34467C1.14919 1.60843 1.78854 1.03505 2.60703 0.620491C3.42414 0.207279 4.34735 0 5.3739 0C6.38943 0 7.27543 0.207279 8.03467 0.620491C8.7939 1.03639 9.34507 1.62727 9.69231 2.39717L7.52483 3.53585C7.02327 2.6704 6.29986 2.23969 5.35736 2.23969C4.62982 2.23969 4.02491 2.47389 3.54953 2.93959C3.07001 3.40799 2.83163 4.04328 2.83163 4.84817C2.83163 5.65306 3.07001 6.28836 3.54953 6.75406C4.02629 7.22246 4.62982 7.45531 5.35736 7.45531C6.31226 7.45531 7.03567 7.02191 7.52483 6.15914L9.69231 7.31264C9.34507 8.05965 8.7939 8.64245 8.03467 9.06374C7.27543 9.48503 6.3908 9.69231 5.3739 9.69231C4.34735 9.69096 3.42414 9.48503 2.60703 9.07047Z" transform="translate(62.461914 4.3076935)" id="Shape" fill="#FFFFFF" stroke="none" />
          <path d="M2.60703 9.07047C1.78854 8.65726 1.14919 8.08253 0.688961 7.34898C0.230113 6.61274 0 5.77958 0 4.84683C0 3.91407 0.230113 3.08092 0.688961 2.34467C1.14919 1.60843 1.78854 1.03505 2.60703 0.620491C3.42414 0.207279 4.34735 0 5.3739 0C6.38943 0 7.27543 0.207279 8.03467 0.620491C8.7939 1.03639 9.34507 1.62727 9.69231 2.39717L7.52483 3.53585C7.02327 2.6704 6.29986 2.23969 5.35736 2.23969C4.62982 2.23969 4.02491 2.47389 3.54953 2.93959C3.07001 3.40799 2.83163 4.04328 2.83163 4.84817C2.83163 5.65306 3.07001 6.28836 3.54953 6.75406C4.02629 7.22246 4.62982 7.45531 5.35736 7.45531C6.31226 7.45531 7.03567 7.02191 7.52483 6.15914L9.69231 7.31264C9.34507 8.05965 8.7939 8.64245 8.03467 9.06374C7.27543 9.48503 6.3908 9.69231 5.3739 9.69231C4.34735 9.69096 3.42414 9.48503 2.60703 9.07047Z" transform="translate(73.23047 4.3076935)" id="Shape" fill="#FFFFFF" stroke="none" />
          <path d="M2.68376 5.61807L9.64103 5.61807C9.67521 5.16313 9.69231 4.91682 9.69231 4.88182C9.69231 3.90061 9.48323 3.04189 9.06772 2.30026C8.65089 1.56132 8.0789 0.990632 7.34911 0.593571C6.62064 0.199203 5.80539 0 4.90467 0C3.98159 0 3.14661 0.207279 2.40105 0.620491C1.65417 1.03505 1.06772 1.61381 0.640368 2.35275C0.213018 3.09438 0 3.92484 0 4.84817C0 5.78093 0.215648 6.61408 0.649573 7.35033C1.08218 8.08388 1.69757 8.6586 2.49441 9.07182C3.29257 9.48772 4.21039 9.69231 5.24786 9.69231Q7.74293 9.69231 9.04274 8.17002L7.62393 6.59524C7.3044 6.91154 6.95989 7.14305 6.5904 7.28706C6.21959 7.43378 5.79487 7.50511 5.31624 7.50511C4.62064 7.50511 4.03945 7.33687 3.57265 6.99768C3.10454 6.66119 2.80868 6.20222 2.68376 5.61807ZM2.64941 4.02444C2.74014 3.41741 2.99129 2.93959 3.40155 2.58964C3.81181 2.24103 4.31805 2.06471 4.92292 2.06337C5.51595 2.06337 6.01694 2.24103 6.42719 2.59637C6.83745 2.9544 7.0886 3.43087 7.17933 4.02444L2.64941 4.02444Z" transform="translate(84 4.3076925)" id="Shape" fill="#FFFFFF" fill-rule="evenodd" stroke="none" />
          <path d="M1.80474 9.40825C1.04936 9.21309 0.447782 8.97216 0 8.68009L0.920063 6.72172C1.34471 6.98957 1.85782 7.20761 2.4594 7.37855C3.06098 7.54679 3.65167 7.63159 4.23011 7.63159C5.39653 7.63159 5.98041 7.3449 5.98041 6.77421C5.98041 6.50637 5.82253 6.31389 5.50269 6.19545C5.1842 6.0797 4.69423 5.9801 4.03412 5.89799C3.25561 5.78224 2.6132 5.64764 2.10553 5.49555C1.59786 5.34346 1.15961 5.07561 0.786681 4.69067C0.416478 4.30438 0.230016 3.75792 0.230016 3.04456C0.230016 2.45099 0.404229 1.92203 0.752655 1.46171C1.09972 1.00139 1.60739 0.642023 2.2743 0.38629C2.93985 0.129212 3.72653 0 4.6357 0C5.30806 0 5.97633 0.0740278 6.6446 0.218045C7.31015 0.364755 7.86273 0.565303 8.29826 0.822381L7.3782 2.7646C6.54116 2.29621 5.62654 2.06336 4.6357 2.06336C4.04501 2.06336 3.60267 2.1468 3.30733 2.31101C3.01198 2.47522 2.86635 2.68384 2.86635 2.93957C2.86635 3.23165 3.02423 3.43623 3.34408 3.55199C3.66256 3.67043 4.16887 3.7808 4.86572 3.88578C5.64424 4.015 6.2812 4.15094 6.77526 4.2963C7.27068 4.44301 7.70213 4.70951 8.06689 5.09311C8.43165 5.47671 8.61539 6.01644 8.61539 6.70153C8.61539 7.28568 8.43845 7.80522 8.08458 8.26015C7.72935 8.71509 7.21352 9.06773 6.53572 9.31673C5.85656 9.56977 5.05218 9.69225 4.12123 9.69225C3.33183 9.69494 2.56012 9.59938 1.80474 9.40825Z" transform="translate(94.76953 4.3076935)" id="Shape" fill="#FFFFFF" stroke="none" />
          <path d="M1.80474 9.40825C1.04936 9.21309 0.449143 8.97216 0 8.68009L0.921425 6.72172C1.34607 6.98957 1.85782 7.20761 2.46076 7.37855C3.06098 7.54679 3.65167 7.63159 4.23011 7.63159C5.39789 7.63159 5.98177 7.3449 5.98177 6.77421C5.98177 6.50637 5.82253 6.31389 5.50405 6.19545C5.18556 6.0797 4.69559 5.9801 4.03549 5.89799C3.25697 5.78224 2.6132 5.64764 2.10689 5.49555C1.59922 5.34346 1.15961 5.07561 0.788042 4.69067C0.416478 4.30438 0.231377 3.75792 0.231377 3.04456C0.231377 2.45099 0.404229 1.92203 0.752655 1.46171C1.10108 1.00139 1.60875 0.642023 2.2743 0.38629C2.93985 0.129212 3.72789 0 4.6357 0C5.30806 0 5.97769 0.0740278 6.6446 0.218045C7.31015 0.364755 7.86273 0.565303 8.29963 0.822381L7.37956 2.7646C6.54116 2.29621 5.6279 2.06336 4.6357 2.06336C4.04501 2.06336 3.60404 2.1468 3.30869 2.31101C3.01334 2.47522 2.86635 2.68384 2.86635 2.93957C2.86635 3.23165 3.02559 3.43623 3.34408 3.55199C3.66256 3.67043 4.17023 3.7808 4.86572 3.88578C5.64424 4.015 6.2812 4.15094 6.77662 4.2963C7.27204 4.44301 7.70349 4.70951 8.06825 5.09311C8.43301 5.47671 8.61539 6.01644 8.61539 6.70153C8.61539 7.28568 8.43845 7.80522 8.08458 8.26015C7.73071 8.71509 7.21352 9.06773 6.53572 9.31673C5.85792 9.56977 5.05218 9.69225 4.12123 9.69225C3.33319 9.69494 2.55876 9.59938 1.80474 9.40825Z" transform="translate(103.384766 4.3076935)" id="Shape" fill="#FFFFFF" stroke="none" />
          <path d="M0.466481 2.76556C0.156348 2.45543 0 2.06712 0 1.59936C0 1.12135 0.156348 0.735604 0.466481 0.443413C0.776614 0.148659 1.16108 0 1.61602 0C2.06969 0 2.45415 0.147377 2.76429 0.443413C3.0757 0.736885 3.23077 1.12135 3.23077 1.59936C3.23077 2.06712 3.0757 2.45543 2.76429 2.76556C2.45415 3.0757 2.06969 3.23076 1.61602 3.23076C1.16108 3.23204 0.776614 3.07698 0.466481 2.76556Z" transform="translate(113.07715 10.76923)" id="Shape" fill="#FFFFFF" stroke="none" />
          <path d="M11.3054 12.9231L11.2876 5.17065L7.63066 11.5583L6.33659 11.5583L2.69871 5.3368L2.69871 12.9231L0 12.9231L0 0L2.37793 0L7.02731 8.02935L11.6057 0L13.9659 0L14 12.9231L11.3054 12.9231Z" transform="translate(123.8457 1.0769234)" id="Shape" fill="#FFFFFF" stroke="none" />
          <path d="M0.692438 7.35C1.1536 8.08365 1.79417 8.65846 2.61556 9.07173C3.43556 9.48635 4.36068 9.69231 5.39373 9.69231C6.42678 9.69231 7.34909 9.48769 8.16348 9.07173C8.97646 8.65981 9.61423 8.08365 10.0768 7.35C10.538 6.61365 10.7692 5.78038 10.7692 4.8475C10.7692 3.91462 10.538 3.08135 10.0768 2.345C9.61423 1.60865 8.97646 1.03654 8.16348 0.620577C7.34909 0.207308 6.42537 0 5.39373 0C4.36068 0 3.43556 0.207308 2.61556 0.620577C1.79417 1.03519 1.1536 1.60865 0.692438 2.345C0.23128 3.08135 0 3.91462 0 4.8475C0 5.78038 0.23128 6.61365 0.692438 7.35ZM7.89052 4.84616C7.89052 5.64039 7.65644 6.27039 7.18967 6.74423C6.72151 7.21808 6.12298 7.455 5.3955 7.45366C4.66662 7.45366 4.06529 7.21673 3.59152 6.74423C3.11775 6.27173 2.88086 5.64039 2.88086 4.84616Q2.88086 3.65481 3.59152 2.94808C4.06529 2.47558 4.66522 2.23866 5.3955 2.23866C6.12298 2.23866 6.72151 2.47423 7.18967 2.94808C7.65644 3.41789 7.89052 4.05192 7.89052 4.84616Z" transform="translate(140 4.3076925)" id="Shape" fill="#FFFFFF" fill-rule="evenodd" stroke="none" />
          <path d="M4.34341 0.35503C4.95518 0.117433 5.66221 0 6.46153 0L6.46153 2.55758C6.12662 2.533 5.90037 2.52071 5.78576 2.52071C4.92095 2.52071 4.24368 2.74192 3.75397 3.18707C3.26277 3.62949 3.01866 4.29586 3.01866 5.1848L3.01866 9.69231L0 9.69231L0 0.142012L2.88469 0.142012L2.88469 1.40373C3.24342 0.942194 3.73015 0.592626 4.34341 0.35503Z" transform="translate(151.8457 4.3076935)" id="Shape" fill="#FFFFFF" stroke="none" />
          <path d="M2.68376 5.61807L9.64103 5.61807C9.6739 5.16313 9.69231 4.91682 9.69231 4.88182C9.69231 3.90061 9.48323 3.04189 9.06772 2.30026C8.65089 1.56132 8.0789 0.990632 7.34911 0.593571C6.62064 0.199203 5.80539 0 4.90467 0C3.98159 0 3.14661 0.207279 2.40105 0.620491C1.65417 1.03505 1.06772 1.61381 0.640368 2.35275C0.213018 3.09438 0 3.92484 0 4.84817C0 5.78093 0.215648 6.61408 0.649573 7.35033C1.08218 8.08388 1.69757 8.6586 2.49441 9.07182C3.29257 9.48772 4.21039 9.69231 5.24786 9.69231Q7.74293 9.69231 9.04274 8.17002L7.62393 6.59524C7.3044 6.91154 6.95989 7.14305 6.5904 7.28706C6.21959 7.43378 5.79487 7.50511 5.31624 7.50511C4.62064 7.50511 4.03945 7.33687 3.57265 6.99768C3.10454 6.66119 2.80868 6.20222 2.68376 5.61807ZM2.64941 4.02444C2.74014 3.41741 2.99129 2.93959 3.40155 2.58964C3.81049 2.24103 4.31805 2.06471 4.92292 2.06337C5.51595 2.06337 6.01694 2.24103 6.42719 2.59637C6.83745 2.9544 7.0886 3.43087 7.17933 4.02444L2.64941 4.02444Z" transform="translate(159.38477 4.3076935)" id="Shape" fill="#FFFFFF" fill-rule="evenodd" stroke="none" />
          <path d="M10.126 5.64167C9.69627 4.92453 9.10536 4.36778 8.35329 3.97144C7.5984 3.57509 6.76293 3.37493 5.84264 3.3789C4.58166 3.3789 3.58927 3.75272 2.86689 4.50034L2.86689 0L0 0L0 12.7865L2.73967 12.7865L2.73967 11.7194C3.44932 12.5214 4.48412 12.9231 5.84405 12.9231C6.76293 12.9231 7.59981 12.7269 8.35329 12.3305C9.10536 11.9342 9.69627 11.3775 10.126 10.6577C10.5558 9.94052 10.7692 9.10408 10.7692 8.15099C10.7692 7.1979 10.5558 6.36146 10.126 5.64167ZM7.86552 8.14966C7.86552 8.93176 7.62944 9.55213 7.15728 10.0187C6.68512 10.4853 6.08149 10.7173 5.3478 10.7173C4.61411 10.7173 4.00907 10.4853 3.53832 10.0187C3.06616 9.55345 2.83008 8.93176 2.83008 8.14966Q2.83008 6.97653 3.53832 6.2806C4.00907 5.81532 4.61411 5.58202 5.3478 5.58202C6.08149 5.58202 6.68512 5.81399 7.15728 6.2806C7.62944 6.74322 7.86552 7.36757 7.86552 8.14966Z" transform="translate(175.53809 1.0769234)" id="Shape" fill="#FFFFFF" fill-rule="evenodd" stroke="none" />
          <path d="M2.68376 5.61807L9.64103 5.61807C9.6739 5.16313 9.69231 4.91682 9.69231 4.88182C9.69231 3.90061 9.48323 3.04189 9.06772 2.30026C8.65089 1.56132 8.0789 0.990632 7.34911 0.593571C6.62064 0.199203 5.80539 0 4.90467 0C3.98159 0 3.14661 0.207279 2.40105 0.620491C1.65417 1.03505 1.06772 1.61381 0.640368 2.35275C0.213018 3.09438 0 3.92484 0 4.84817C0 5.78093 0.215648 6.61408 0.649573 7.35033C1.08218 8.08388 1.69757 8.6586 2.49441 9.07182C3.29257 9.48772 4.21039 9.69231 5.24786 9.69231Q7.74293 9.69231 9.04274 8.17002L7.62393 6.59524C7.3044 6.91154 6.95989 7.14305 6.5904 7.28706C6.21959 7.43378 5.79487 7.50511 5.31624 7.50511C4.62064 7.50511 4.03945 7.33687 3.57265 6.99768C3.10454 6.66119 2.80868 6.20222 2.68376 5.61807ZM2.64844 4.02444C2.73917 3.41741 2.99032 2.93959 3.40057 2.58964C3.81083 2.24103 4.31839 2.06471 4.92194 2.06337C5.51497 2.06337 6.01596 2.24103 6.42622 2.59637C6.83647 2.9544 7.08762 3.43087 7.17835 4.02444L2.64844 4.02444Z" transform="translate(188.46191 4.3076935)" id="Shape" fill="#FFFFFF" fill-rule="evenodd" stroke="none" />
          <path d="M8.60785 1.06373C9.33037 1.77515 9.69231 2.82932 9.69231 4.22349L9.69231 9.69094L6.94322 9.69094L6.94322 4.65089C6.94322 3.89304 6.77919 3.32772 6.44979 2.95494C6.12174 2.58489 5.64458 2.39782 5.02238 2.39782C4.32833 2.39782 3.77661 2.61357 3.36587 3.04643C2.95378 3.47793 2.74909 4.11835 2.74909 4.97178L2.74909 9.69231L0 9.69231L0 0.142016L2.62709 0.142016L2.62709 1.26172C2.99174 0.858902 3.44314 0.547569 3.98401 0.327723C4.52353 0.109244 5.11727 3.92385e-06 5.76252 3.92385e-06C6.93644 -0.00136157 7.88534 0.353668 8.60785 1.06373Z" transform="translate(200.30762 4.3076935)" id="Shape" fill="#FFFFFF" stroke="none" />
          <path d="M2.68376 5.61807L9.64103 5.61807C9.67653 5.16313 9.69231 4.91682 9.69231 4.88182C9.69231 3.90061 9.48323 3.04189 9.06772 2.30026C8.65089 1.56132 8.0789 0.990632 7.34911 0.593571C6.62064 0.199203 5.80671 0 4.90598 0C3.98291 0 3.14793 0.207279 2.40237 0.620491C1.65417 1.03505 1.06772 1.61381 0.640368 2.35275C0.214333 3.09438 0 3.92484 0 4.84817C0 5.78093 0.216963 6.61408 0.649573 7.35033C1.08218 8.08388 1.69757 8.6586 2.49573 9.07182C3.29389 9.48772 4.21039 9.69231 5.24786 9.69231Q7.7449 9.69231 9.04274 8.17002L7.62393 6.59524C7.30572 6.91154 6.95989 7.14305 6.5904 7.28706C6.22091 7.43378 5.79487 7.50511 5.31624 7.50511C4.62196 7.50511 4.03945 7.33687 3.57265 6.99768C3.10454 6.66119 2.80999 6.20222 2.68376 5.61807ZM2.65137 4.02444C2.7421 3.41741 2.99193 2.93959 3.40219 2.58964C3.81376 2.24103 4.32001 2.06471 4.92356 2.06337C5.51659 2.06337 6.01889 2.24103 6.42914 2.59637C6.83809 2.9544 7.08924 3.43087 7.17997 4.02444L2.65137 4.02444Z" transform="translate(211.07715 4.3076935)" id="Shape" fill="#FFFFFF" fill-rule="evenodd" stroke="none" />
          <path d="M9.8658 2.65194C9.53629 2.355 9.37012 1.9869 9.37012 1.54765C9.37012 1.1084 9.53488 0.740299 9.8658 0.443358C10.1953 0.149155 10.622 0 11.1473 0C11.6711 0 12.0992 0.142313 12.4287 0.426938C12.7568 0.710195 12.923 1.06598 12.923 1.49291C12.923 1.95543 12.7583 2.33721 12.4287 2.63962C12.0992 2.94478 11.6711 3.09393 11.1473 3.09393C10.622 3.0953 10.1953 2.94888 9.8658 2.65194ZM6.82697 4.64295L4.30206 4.64295L4.30206 4.23654C4.30206 3.3115 4.73579 2.84899 5.60183 2.84899Q6.26087 2.84899 6.75515 3.18561L7.50572 1.17545C7.24802 1.00987 6.92695 0.881243 6.54392 0.793666C6.15948 0.704721 5.75392 0.659564 5.32723 0.659564C4.11899 0.659564 3.18254 0.979767 2.51646 1.62154C1.85038 2.25921 1.51945 3.1254 1.51945 4.21601L1.51945 4.64295L0 4.64295L0 6.77901L1.51945 6.77901L1.51945 14L4.37388 14L4.37388 6.77901L6.82697 6.77901L6.82697 4.64295ZM12.5736 4.42948L9.71777 4.42948L9.71777 14L12.5736 14L12.5736 4.42948Z" transform="translate(221.8457 0)" id="Shape" fill="#FFFFFF" fill-rule="evenodd" stroke="none" />
          <path d="M7.53847 11.2419C7.2577 11.4447 6.91344 11.5954 6.50286 11.6968C6.0937 11.7982 5.66196 11.8462 5.21047 11.8462C4.0366 11.8462 3.12798 11.557 2.48602 10.9733C1.84405 10.3923 1.52237 9.53859 1.52237 8.40947L1.52237 4.47263L0 4.47263L0 2.3336L1.52237 2.3336L1.52237 0L4.38368 0L4.38368 2.3336L6.84148 2.3336L6.84148 4.47263L4.38368 4.47263L4.38368 8.37521C4.38368 8.7767 4.4895 9.08913 4.70537 9.30975C4.91842 9.52899 5.22176 9.63862 5.61399 9.63862C6.06548 9.63862 6.45066 9.52077 6.76811 9.28234L7.53847 11.2419Z" transform="translate(235.8457 2.1538467)" id="Shape" fill="#FFFFFF" stroke="none" />
          <path d="M1.80474 9.40825C1.04936 9.21309 0.449143 8.97216 0 8.68009L0.921425 6.72172C1.34607 6.98957 1.85782 7.20761 2.46076 7.37855C3.06098 7.54679 3.65167 7.63159 4.23011 7.63159C5.39789 7.63159 5.98177 7.3449 5.98177 6.77421C5.98177 6.50637 5.82253 6.31389 5.50405 6.19545C5.18556 6.0797 4.69559 5.9801 4.03549 5.89799C3.25697 5.78224 2.6132 5.64764 2.10689 5.49555C1.59922 5.34346 1.15961 5.07561 0.788042 4.69067C0.416478 4.30438 0.231377 3.75792 0.231377 3.04456C0.231377 2.45099 0.404229 1.92203 0.752655 1.46171C1.10108 1.00139 1.60875 0.642023 2.2743 0.38629C2.93985 0.129212 3.72789 0 4.6357 0C5.30806 0 5.97769 0.0740278 6.6446 0.218045C7.31015 0.364755 7.86273 0.565303 8.29963 0.822381L7.37956 2.7646C6.54116 2.29621 5.6279 2.06336 4.6357 2.06336C4.04501 2.06336 3.60404 2.1468 3.30869 2.31101C3.01334 2.47522 2.86635 2.68384 2.86635 2.93957C2.86635 3.23165 3.02559 3.43623 3.34408 3.55199C3.66256 3.67043 4.17023 3.7808 4.86572 3.88578C5.64424 4.015 6.2812 4.15094 6.77662 4.2963C7.27204 4.44301 7.70349 4.70951 8.06825 5.09311C8.43301 5.47671 8.61539 6.01644 8.61539 6.70153C8.61539 7.28568 8.43845 7.80522 8.08458 8.26015C7.73071 8.71509 7.21352 9.06773 6.53572 9.31673C5.85792 9.56977 5.05218 9.69225 4.12123 9.69225C3.33319 9.69494 2.56012 9.59938 1.80474 9.40825Z" transform="translate(243.38477 4.3076935)" id="Shape" fill="#FFFFFF" stroke="none" />
        </g>
      </g>
      <g id="Group-25" transform="translate(1 21)">
        <g id="Combined-Shape">
          <use stroke="none" fill="#074A8D" xlink:href="#path_1" fill-rule="evenodd" />
          <use stroke="none" fill="#FFFFFF" style="mix-blend-mode: multiply;" xlink:href="#path_1" fill-rule="evenodd" />
        </g>
      </g>
      <path d="M0 46.5C0 20.8188 20.8488 0 46.5672 0L78 0L78 3.67105C78 14.4842 69.2696 23.25 58.5 23.25L46.5672 23.25C33.708 23.25 23.2836 33.6594 23.2836 46.5C23.2836 59.3406 33.708 69.75 46.5672 69.75L58.5 69.75C69.1574 69.75 77.8179 78.3341 77.9972 88.9917L78 89.3289L78 93L46.5672 93C20.8488 93 0 72.1812 0 46.5Z" transform="translate(185 21)" id="Path" fill="#074A8D" stroke="none" />
      <g id="Path">
        <use stroke="none" fill="#074A8D" xlink:href="#path_2" />
        <use stroke="none" fill="url(#gradient_1)" style="mix-blend-mode: multiply;" xlink:href="#path_2" />
      </g>
      <g id="Path">
        <use stroke="none" fill="#074A8D" xlink:href="#path_3" />
        <use stroke="none" fill="url(#gradient_2)" style="mix-blend-mode: color-dodge;" xlink:href="#path_3" />
      </g>
      <path d="M0 0L31 0L31 3.001Q31 3.49195 30.9759 3.9823Q30.9518 4.47266 30.9037 4.96124Q30.8556 5.44983 30.7835 5.93546Q30.7115 6.4211 30.6157 6.90261Q30.5199 7.38412 30.4007 7.86036Q30.2814 8.33659 30.1388 8.8064Q29.9963 9.27621 29.8309 9.73846Q29.6655 10.2007 29.4777 10.6543Q29.2898 11.1079 29.0799 11.5517Q28.87 11.9955 28.6385 12.4285Q28.4071 12.8614 28.1547 13.2825Q27.9023 13.7036 27.6296 14.1118Q27.3568 14.5201 27.0643 14.9144Q26.7719 15.3087 26.4604 15.6882Q26.149 16.0677 25.8193 16.4315Q25.4896 16.7953 25.1424 17.1424Q24.7953 17.4896 24.4315 17.8193Q24.0677 18.149 23.6882 18.4604Q23.3087 18.7719 22.9144 19.0643Q22.5201 19.3568 22.1118 19.6296Q21.7036 19.9023 21.2825 20.1547Q20.8614 20.4071 20.4285 20.6385Q19.9955 20.87 19.5517 21.0799Q19.1079 21.2898 18.6543 21.4777Q18.2007 21.6655 17.7385 21.8309Q17.2762 21.9963 16.8064 22.1388Q16.3366 22.2814 15.8604 22.4007Q15.3841 22.5199 14.9026 22.6157Q14.4211 22.7115 13.9355 22.7835Q13.4498 22.8556 12.9612 22.9037Q12.4727 22.9518 11.9823 22.9759Q11.4919 23 11.001 23L0 23L0 0Z" transform="translate(48 21)" id="Rectangle-Copy-3" fill="#074A8D" stroke="none" />
      <g id="Rectangle-Copy-3">
        <use stroke="none" fill="#074A8D" xlink:href="#path_4" />
        <use stroke="none" fill="url(#gradient_3)" style="mix-blend-mode: color-dodge;" xlink:href="#path_4" />
      </g>
      <g id="Group-34" transform="translate(0 129)">
        <path d="M7.5315 41.6595C4.40712 40.77 1.89567 39.611 0 38.1881L3.32774 30.9423C5.14093 32.2493 7.2997 33.2994 9.79977 34.0897C12.2998 34.8815 14.7999 35.278 17.3 35.278C20.0831 35.278 22.1394 34.8731 23.4705 34.0604C24.8016 33.2505 25.4658 32.1697 25.4658 30.825C25.4658 29.8364 25.0733 29.0125 24.2854 28.359C23.5004 27.7055 22.4907 27.1819 21.262 26.7867C20.0319 26.3915 18.368 25.953 16.2704 25.4783C13.0436 24.727 10.4042 23.9744 8.3478 23.2217C6.29142 22.4705 4.52658 21.2612 3.0547 19.5995C1.58281 17.9364 0.847579 15.719 0.847579 12.9458C0.847579 10.5315 1.51313 8.34335 2.8428 6.38423C4.17248 4.42512 6.17908 2.86955 8.85976 1.72173C11.5404 0.57391 14.817 0 18.688 0C21.39 0 24.0323 0.318374 26.612 0.949536C29.1917 1.58489 31.45 2.49393 33.3869 3.68224L30.3621 10.9867C26.4513 8.80834 22.539 7.71917 18.6297 7.71917C15.885 7.71917 13.8599 8.15484 12.5501 9.02617C11.2389 9.89891 10.5834 11.0467 10.5834 12.4724C10.5834 13.8981 11.3399 14.9566 12.853 15.6478C14.3633 16.3418 16.6728 17.0246 19.7787 17.6977C23.0055 18.4517 25.6449 19.2044 27.7013 19.9542C29.7563 20.7069 31.5225 21.8952 32.9944 23.5192C34.4649 25.1431 35.203 27.3396 35.203 30.1115C35.203 32.4881 34.526 34.6553 33.1764 36.6158C31.824 38.5735 29.7989 40.1291 27.0969 41.2769C24.3963 42.4247 21.1112 43 17.2374 43C13.8926 42.9986 10.6559 42.5504 7.5315 41.6595Z" id="Shape" fill="#B2CC92" stroke="none" />
        <path d="M13.287 7.73868L0 7.73868L0 0L36.1808 0L36.1808 7.73868L22.8938 7.73868L22.8938 41.0455L13.287 41.0455L13.287 7.73868Z" transform="translate(41.070312 0.977273)" id="Shape" fill="#B2CC92" stroke="none" />
        <path d="M3.03272 32.5163C5.05549 35.7838 7.85337 38.3474 11.4278 40.2073C15.0022 42.07 19.0161 43 23.4694 43C27.9212 43 31.925 42.07 35.4792 40.2073C39.0335 38.3474 41.8314 35.7838 43.8743 32.5163C45.9158 29.2489 46.9373 25.578 46.9373 21.4993C46.9373 17.4206 45.9158 13.7497 43.8743 10.4823C41.8314 7.21484 39.0335 4.65118 35.4792 2.79127C31.925 0.929956 27.9212 0 23.4694 0C19.0161 0 15.0022 0.929956 11.4278 2.79127C7.85337 4.65118 5.05549 7.21484 3.03272 10.4823C1.01283 13.7497 0 17.4206 0 21.4993C0 25.578 1.01283 29.2489 3.03272 32.5163ZM35.7922 28.423C34.6231 30.4501 33.0108 32.0311 30.9565 33.166C28.9023 34.2981 26.6018 34.8649 24.055 34.8649C21.5053 34.8649 19.2063 34.2995 17.152 33.166C15.0978 32.0311 13.4869 30.4501 12.3149 28.423C11.1458 26.3931 10.5605 24.0854 10.5605 21.5C10.5605 18.9146 11.1458 16.6069 12.3149 14.5784C13.4869 12.5499 15.0978 10.9689 17.152 9.83538C19.2063 8.69908 21.5053 8.13513 24.055 8.13513C26.6018 8.13513 28.9023 8.69908 30.9565 9.83538C33.0108 10.9689 34.6231 12.5499 35.7922 14.5784C36.9642 16.6083 37.5495 18.9146 37.5495 21.5C37.5495 24.0854 36.9642 26.3945 35.7922 28.423Z" transform="translate(83.118164 0)" id="Shape" fill="#B2CC92" fill-rule="evenodd" stroke="none" />
        <path d="M18.6399 29.6122L26.7297 41.0455L26.7297 41.0441L37.1587 41.0441L27.7485 27.8531C30.5062 26.6784 32.634 24.9896 34.1319 22.7796C35.6298 20.571 36.3794 17.9419 36.3794 14.8923C36.3794 11.8441 35.6382 9.20531 34.1615 6.97602C32.6847 4.74673 30.5752 3.02892 27.8401 1.81707C25.1022 0.605232 21.8753 0 18.1594 0L0 0L0 41.0455L9.71029 41.0455L9.71029 29.6122L18.6399 29.6122ZM16.9254 7.03636C19.7426 7.03636 21.8823 7.64244 23.3474 8.85325C24.8138 10.0641 25.547 11.8037 25.547 14.0734C25.547 16.3025 24.8138 18.0326 23.3474 19.2624C21.8823 20.4935 19.7412 21.1091 16.9254 21.1091L9.29004 21.1091L9.29004 7.03636L16.9254 7.03636Z" transform="translate(139.83398 0.977273)" id="Shape" fill="#B2CC92" fill-rule="evenodd" stroke="none" />
        <path d="M32.2694 33.4228L32.2694 41.0455L0 41.0455L0 0L31.4939 0L31.4939 7.62123L9.58675 7.62123L9.58675 16.5356L28.9338 16.5356L28.9338 23.9239L9.58675 23.9239L9.58675 33.4215L32.2694 33.4215L32.2694 33.4228Z" transform="translate(189.70508 0.977273)" id="Shape" fill="#B2CC92" stroke="none" />
        <path d="M7.53039 41.6595C4.40588 40.77 1.89433 39.611 0 38.1881L3.32788 30.9423C5.14114 32.2493 7.29857 33.2994 9.80017 34.0897C12.3003 34.8815 14.8005 35.278 17.3007 35.278C20.0825 35.278 22.1389 34.8731 23.4701 34.0604C24.8026 33.2505 25.4654 32.1697 25.4654 30.825C25.4654 29.8364 25.0728 29.0125 24.2864 28.359C23.4999 27.7055 22.4902 27.1819 21.2614 26.7867C20.0313 26.3915 18.3687 25.953 16.271 25.4783C13.0441 24.727 10.4046 23.9744 8.34671 23.2217C6.29168 22.4705 4.52534 21.2612 3.05482 19.5995C1.58287 17.9364 0.846191 15.719 0.846191 12.9458C0.846191 10.5315 1.51319 8.34335 2.84292 6.38423C4.17264 4.42512 6.17933 2.86955 8.85869 1.72173C11.5423 0.57391 14.8176 0 18.6887 0C21.3894 0 24.0318 0.318374 26.6131 0.949536C29.1914 1.58489 31.4513 2.49393 33.3883 3.68224L30.3633 10.9867C26.4523 8.80834 22.54 7.71917 18.6276 7.71917C15.8856 7.71917 13.8576 8.15484 12.5506 9.02617C11.2394 9.89891 10.5838 11.0467 10.5838 12.4724C10.5838 13.8981 11.339 14.9566 12.8536 15.6478C14.3639 16.3418 16.6735 17.0246 19.7781 17.6977C23.0036 18.4517 25.6446 19.2044 27.7024 19.9542C29.7575 20.7069 31.5238 21.8952 32.9943 23.5192C34.4663 25.1431 35.203 27.3396 35.203 30.1115C35.203 32.4881 34.5274 34.6553 33.1778 36.6158C31.8253 38.5735 29.8001 40.1291 27.098 41.2769C24.3973 42.4247 21.1093 43 17.2381 43C13.8918 42.9986 10.6549 42.5504 7.53039 41.6595Z" transform="translate(229.79688 0)" id="Shape" fill="#B2CC92" stroke="none" />
      </g>
    </g>
  </g>
</svg>