<?xml version="1.0" encoding="UTF-8"?>
<svg width="20px" height="20px" viewBox="0 0 20 20" version="1.1" xmlns="http://www.w3.org/2000/svg" xmlns:xlink="http://www.w3.org/1999/xlink">
    <title>Group 2</title>
    <g id="Symbols" stroke="none" stroke-width="1" fill="none" fill-rule="evenodd">
        <g id="Group-2" fill="#F5A623">
            <path d="M19.7020229,13.876159 C19.6471588,13.715977 19.5524255,13.5725541 19.4266438,13.4591212 C19.3010385,13.3455119 19.1486186,13.2659501 18.9836734,13.2276687 L12.9983684,11.8610052 C12.835893,11.8243115 12.6667139,11.8287218 12.5063554,11.8740597 C12.3461734,11.9192212 12.1997515,12.0040753 12.080497,12.1205072 C11.9409551,12.25017 11.9308996,12.2600491 11.2825857,13.4970497 C9.130889,12.5056145 7.40699133,10.7746604 6.42437671,8.61890621 C7.691191,7.98047133 7.70124648,7.98047133 7.83090927,7.83087399 C7.94734116,7.71179591 8.0320189,7.56537399 8.07735678,7.40501551 C8.12269465,7.24465704 8.12710495,7.07565439 8.09023485,6.91317897 L6.7235714,0.997556711 C6.68529,0.832664452 6.60572821,0.680209236 6.49229532,0.554550997 C6.37886243,0.428892757 6.23526309,0.334177176 6.07525744,0.279313056 C5.84221724,0.196099535 5.60159133,0.135960698 5.35694322,0.0997433223 C5.10481525,0.0412803987 4.84751841,0.00786797342 4.58882791,0 C3.37179708,0 2.20460262,0.483456977 1.34404744,1.3440298 C0.483474618,2.20460262 0,3.37177944 0,4.58881027 C0.0052923588,8.66159791 1.62553037,12.5661238 4.50542033,15.4458727 C7.38529266,18.3257979 11.2898186,19.9461418 15.3624651,19.9514341 C15.9650883,19.9514341 16.56189,19.8327089 17.1186461,19.601962 C17.6754023,19.3713916 18.1811754,19.0333863 18.6073867,18.6073514 C19.0334216,18.1811401 19.3714269,17.675367 19.6019973,17.1186109 C19.8327442,16.5618547 19.9512976,15.9652295 19.9512976,15.3626062 C19.9516458,15.108573 19.9317113,14.855069 19.8914893,14.6043876 C19.8495033,14.3565288 19.7861714,14.1129039 19.7020229,13.876159 Z" id="Vector_3-Copy-2" fill-rule="nonzero"></path>
            <path d="M19.2186665,0 L13.8449794,0 C13.6370986,0 13.4571905,0.0759677419 13.3052551,0.22805045 C13.1533196,0.37983871 13.0773518,0.559894036 13.0773518,0.767774756 C13.0773518,0.975655476 13.1533196,1.15556358 13.3052551,1.30749906 L15.0324906,3.0345874 L11.0502204,7.01700488 C10.9701303,7.09694767 10.9302326,7.18896287 10.9302326,7.292756 C10.9302326,7.39684359 10.9701303,7.48885878 11.0502204,7.56880158 L12.4174925,8.93592648 C12.4975825,9.01586928 12.5894505,9.05576707 12.6933908,9.05576707 C12.7973312,9.05576707 12.8893464,9.01586928 12.9692892,8.93592648 L16.9515595,4.95365623 L18.678795,6.68089179 C18.8307305,6.83268005 19.0106386,6.90879501 19.2185193,6.90879501 C19.4265473,6.90879501 19.6064554,6.83268005 19.7583908,6.68089179 C19.9103263,6.52910353 19.9862941,6.3490482 19.9862941,6.14116748 L19.9862941,0.767480308 C19.9862941,0.559599587 19.9103263,0.379544261 19.7585381,0.227903226 C19.6066026,0.0759677419 19.4266945,0 19.2186665,0 L19.2186665,0 Z" id="Shape"></path>
        </g>
    </g>
</svg>