<?xml version="1.0" encoding="UTF-8"?>
<svg width="28px" height="28px" viewBox="0 0 28 28" version="1.1" xmlns="http://www.w3.org/2000/svg" xmlns:xlink="http://www.w3.org/1999/xlink">
    <title>Group 2</title>
    <g id="Symbols" stroke="none" stroke-width="1" fill="none" fill-rule="evenodd">
        <g id="Topbar/call_not_started" transform="translate(-1383.000000, -20.000000)" fill="#FFFFFF" stroke="#FFFFFF" stroke-width="2">
            <g id="Group-3" transform="translate(1022.000000, 10.000000)">
                <g id="Group-2" transform="translate(361.000000, 10.000000)">
                    <path d="M6.40909556,1.00002368 C6.7003251,1.00986244 6.98994085,1.04796571 7.27383565,1.11379466 C7.63112838,1.16999243 7.90441094,1.23829269 8.16907822,1.33279954 L8.16907822,1.33279954 L10.3511232,9.89975129 C10.0700099,10.4670178 10.0099085,10.4350603 8.82927126,11.0297809 C8.49678468,11.1972638 8.25713118,11.3229197 8.07971853,11.4177528 C8.15413254,11.696233 8.23876257,11.9734354 8.33381216,12.248974 C9.51357921,15.6689931 12.1152157,18.3011019 15.3771379,19.8040947 C15.6650249,19.9367441 15.9562556,20.0597694 16.2503534,20.1728445 C16.3608703,19.9668498 16.5016538,19.7029356 16.6813452,19.3600796 C17.3614245,18.0624696 17.4287713,17.8665811 17.5540083,17.7386894 L17.5540083,17.7386894 L26.351066,19.4928456 C26.7389895,20.0383942 26.8130309,20.3233037 26.8607139,20.6045667 C26.9085478,20.9026895 26.9322317,21.2041702 26.9318166,21.5076487 C26.9318166,22.2199239 26.7917284,22.9251196 26.51889,23.5834362 C26.2463208,24.2416063 25.8467231,24.8394881 25.343381,25.3430388 C24.8395375,25.8466737 24.2416557,26.2462714 23.5832358,26.5189441 C22.9251568,26.7916841 22.2197434,26.9320078 21.5087506,26.9320086 C16.0718055,26.9249434 10.8593032,24.7617936 7.01467792,20.9170976 C3.17005548,17.0726636 1.0070644,11.8601606 1,6.42433437 C1,4.98570726 1.5715084,3.60601331 2.58878045,2.58874125 C3.6024214,1.57507952 4.97597288,1.0040517 6.40909556,1.00002368 Z" id="Vector_3-Copy-2" fill-rule="nonzero"></path>
                    <path d="M26.9061332,1 C26.9264231,1 26.9411372,1.01246195 26.9551897,1.0265143 C26.9686808,1.0399923 26.9808117,1.0545376 26.9808117,1.07447243 L26.9808117,1.07447243 L26.9808117,8.59763447 C26.9808117,8.61767349 26.9685418,8.63225358 26.9549832,8.64579904 C26.9411774,8.6595915 26.9264016,8.67231302 26.905927,8.67231302 C26.8855188,8.67231302 26.8708285,8.6595373 26.8574198,8.64614172 L26.8574198,8.64614172 L23.7321832,5.52090515 L18.0481447,11.2049437 L16.9523229,10.4242914 L22.4153835,4.20404891 L19.3344639,1.12339191 C19.3208088,1.10973684 19.3082926,1.09510831 19.3082926,1.07488466 C19.3082926,1.05484564 19.3205624,1.04026555 19.3348062,1.0260349 L19.3348062,1.0260349 Z" id="Shape"></path>
                </g>
            </g>
        </g>
    </g>
</svg>