<?xml version="1.0" encoding="utf-8"?>
<svg width="30px" height="30px" viewBox="0 0 30 30" version="1.1" xmlns:xlink="http://www.w3.org/1999/xlink" xmlns="http://www.w3.org/2000/svg">
  <desc>Created with Lunacy</desc>
  <g id="phoneicon">
    <path d="M15 30C23.2843 30 30 23.2843 30 15C30 6.71573 23.2843 0 15 0C6.71573 0 0 6.71573 0 15C0 23.2843 6.71573 30 15 30Z" id="Ellipse" fill="#D1E7FF" stroke="none" />
    <g id="Layer-2" transform="translate(8.199951 8.200195)">
      <g id="phone-call">
        <path d="M0.6786 1.35714C1.21848 1.35714 1.73628 1.57158 2.118 1.95342C2.49984 2.33514 2.71428 2.85294 2.71428 3.39282C2.71428 3.57282 2.7858 3.74538 2.913 3.8727C3.04032 3.9999 3.21288 4.07142 3.39288 4.07142C3.57288 4.07142 3.74544 3.9999 3.87264 3.8727C3.99996 3.74538 4.07148 3.57282 4.07148 3.39282C4.07148 2.49306 3.714 1.63002 3.07764 0.993744C2.4414 0.357456 1.57836 0 0.6786 0C0.4986 0 0.32604 0.071484 0.19872 0.198744C0.07152 0.326004 0 0.4986 0 0.678564C0 0.85854 0.07152 1.03114 0.19872 1.15842C0.32604 1.28562 0.4986 1.35714 0.6786 1.35714Z" transform="translate(6.8 2.72774)" id="Vector" fill="#0F73E7" stroke="none" />
        <path d="M0.6786 1.35714C1.93836 1.35714 3.14652 1.85759 4.03728 2.74838C4.92816 3.63918 5.42856 4.84736 5.42856 6.10712C5.42856 6.28712 5.50008 6.45968 5.62728 6.587C5.7546 6.7142 5.92716 6.78572 6.10716 6.78572C6.28716 6.78572 6.45972 6.7142 6.58692 6.587C6.71424 6.45968 6.78576 6.28712 6.78576 6.10712C6.78576 4.48736 6.14232 2.93405 4.99692 1.78873C3.85164 0.643428 2.29824 0 0.6786 0C0.4986 0 0.32604 0.071484 0.19872 0.198744C0.07152 0.326004 0 0.4986 0 0.678564C0 0.85854 0.07152 1.03114 0.19872 1.15838C0.32604 1.28564 0.4986 1.35714 0.6786 1.35714Z" transform="translate(6.8 0.013676)" id="Vector_2" fill="#0F73E7" stroke="none" />
        <path d="M13.4018 9.43892C13.3645 9.32996 13.3001 9.2324 13.2145 9.15524C13.1291 9.07796 13.0254 9.02384 12.9132 8.9978L8.84183 8.06816C8.73131 8.0432 8.61623 8.0462 8.50715 8.07704C8.39819 8.10776 8.29859 8.16548 8.21747 8.24468C8.12255 8.33288 8.11571 8.3396 7.67471 9.18104C6.21107 8.50664 5.03843 7.3292 4.37003 5.8628C5.23175 5.42852 5.23859 5.42852 5.32679 5.32676C5.40599 5.24576 5.46359 5.14616 5.49443 5.03708C5.52527 4.928 5.52827 4.81304 5.50319 4.70252L4.57355 0.678564C4.54751 0.5664 4.49339 0.462696 4.41623 0.37722C4.33907 0.291744 4.24139 0.227316 4.13255 0.189996C3.97403 0.133392 3.81035 0.092484 3.64393 0.067848C3.47243 0.02808 3.29741 0.005352 3.12144 0C2.29358 0 1.49963 0.32886 0.914256 0.914244C0.328872 1.49963 0 2.29357 0 3.12143C0.0036 5.89184 1.10573 8.5478 3.0647 10.5067C5.02367 12.4657 7.67963 13.5679 10.4499 13.5715C10.8599 13.5715 11.2658 13.4907 11.6445 13.3338C12.0233 13.1769 12.3673 12.947 12.6572 12.6572C12.947 12.3673 13.1769 12.0232 13.3338 11.6445C13.4907 11.2658 13.5714 10.86 13.5714 10.45C13.5716 10.2772 13.5581 10.1048 13.5307 9.93428C13.5021 9.76568 13.4591 9.59996 13.4018 9.43892Z" transform="translate(0.014252 0.013676)" id="Vector_3" fill="#0F73E7" stroke="none" />
      </g>
    </g>
  </g>
</svg>