<svg width="40" height="40" xmlns:xlink="http://www.w3.org/1999/xlink" xmlns="http://www.w3.org/2000/svg"><defs><clipPath id="c"><use xlink:href="#a"/></clipPath><clipPath id="d"><use xlink:href="#b"/></clipPath><path d="M39.404 27.752a1.992 1.992 0 00-1.437-1.297l-11.97-2.733a1.998 1.998 0 00-1.836.519c-.28.26-.3.28-1.596 2.753a19.77 19.77 0 01-9.716-9.756c2.533-1.277 2.553-1.277 2.813-1.576a1.994 1.994 0 00.518-1.836l-2.733-11.83A1.995 1.995 0 0012.151.558a7.568 7.568 0 00-1.437-.36A7.86 7.86 0 009.178 0 9.178 9.178 0 000 9.178a30.764 30.764 0 0030.725 30.725 9.174 9.174 0 008.479-5.666 9.172 9.172 0 00.699-3.512c0-.508-.04-1.015-.12-1.516a8.677 8.677 0 00-.379-1.457z" id="a"/><path d="M18.112 3.527a.758.758 0 00-.24-.552L15.137.24a.757.757 0 00-.551-.24.758.758 0 00-.552.24L6.069 8.205 2.615 4.75a1.476 1.476 0 00-1.08-.456c-.416 0-.775.152-1.08.456A1.475 1.475 0 000 5.83v10.747c0 .416.152.776.456 1.08.304.303.663.455 1.08.455h10.747c.415 0 .776-.151 1.08-.455.303-.304.456-.664.456-1.08 0-.416-.153-.776-.457-1.08l-3.454-3.454 7.965-7.965a.76.76 0 00.24-.551z" transform="translate(21.86)" id="b"/></defs><g clip-path="url(#c)"><use xlink:href="#a" fill="none" stroke="#FFF" stroke-width="4"/></g><g clip-path="url(#d)"><use xlink:href="#b" fill="none" stroke="#FFF" stroke-width="4"/></g></svg>