<?xml version="1.0" encoding="UTF-8"?>
<svg width="13px" height="22px" viewBox="0 0 13 22" version="1.1" xmlns="http://www.w3.org/2000/svg" xmlns:xlink="http://www.w3.org/1999/xlink">
    <title>phone_iphone-black-24dp</title>
    <g id="Symbols" stroke="none" stroke-width="1" fill="none" fill-rule="evenodd">
        <g id="icon/Material/phone-iphone" transform="translate(-6.000000, -1.000000)" fill="#979797" fill-rule="nonzero">
            <g id="phone_iphone-black-24dp" transform="translate(6.000000, 1.000000)">
                <path d="M10.5,0 L2.5,0 C1.12,0 0,1.12 0,2.5 L0,19.5 C0,20.88 1.12,22 2.5,22 L10.5,22 C11.88,22 13,20.88 13,19.5 L13,2.5 C13,1.12 11.88,0 10.5,0 Z M6.5,21 C5.67,21 5,20.33 5,19.5 C5,18.67 5.67,18 6.5,18 C7.33,18 8,18.67 8,19.5 C8,20.33 7.33,21 6.5,21 Z M11,17 L2,17 L2,3 L11,3 L11,17 Z" id="Shape"></path>
            </g>
        </g>
    </g>
</svg>