<?xml version="1.0" encoding="utf-8"?>
<svg width="28px" height="28px" viewBox="0 0 28 28" version="1.1" xmlns:xlink="http://www.w3.org/1999/xlink" xmlns="http://www.w3.org/2000/svg">
  <desc>Created with Lunacy</desc>
  <g id="Group-5">
    <path d="M0.999 0L1.001 0Q1.09939 0 1.1959 0.0191955Q1.2924 0.038391 1.3833 0.0760443Q1.4742 0.113698 1.55601 0.168362Q1.63783 0.223026 1.7074 0.2926Q1.77697 0.362175 1.83164 0.443985Q1.8863 0.525796 1.92396 0.616699Q1.96161 0.707602 1.9808 0.804105Q2 0.900607 2 0.999L2 27.001Q2 27.0994 1.9808 27.1959Q1.96161 27.2924 1.92396 27.3833Q1.8863 27.4742 1.83164 27.556Q1.77697 27.6378 1.7074 27.7074Q1.63783 27.777 1.55601 27.8316Q1.4742 27.8863 1.3833 27.924Q1.2924 27.9616 1.1959 27.9808Q1.09939 28 1.001 28L0.999 28Q0.900607 28 0.804105 27.9808Q0.707602 27.9616 0.616699 27.924Q0.525796 27.8863 0.443985 27.8316Q0.362175 27.777 0.2926 27.7074Q0.223026 27.6378 0.168362 27.556Q0.113698 27.4742 0.0760443 27.3833Q0.038391 27.2924 0.0191955 27.1959Q0 27.0994 0 27.001L0 0.999Q0 0.900607 0.0191955 0.804105Q0.038391 0.707602 0.0760443 0.616699Q0.113698 0.525796 0.168362 0.443985Q0.223026 0.362175 0.2926 0.2926Q0.362175 0.223026 0.443985 0.168362Q0.525796 0.113698 0.616699 0.0760443Q0.707602 0.038391 0.804105 0.0191955Q0.900607 0 0.999 0Z" transform="translate(13 0)" id="Rectangle-12" fill="#0F73E7" stroke="none" />
    <path d="M0.999 0L1.001 0Q1.09939 0 1.1959 0.0191955Q1.2924 0.038391 1.3833 0.0760443Q1.4742 0.113698 1.55601 0.168362Q1.63783 0.223026 1.7074 0.2926Q1.77697 0.362175 1.83164 0.443985Q1.8863 0.525796 1.92396 0.616699Q1.96161 0.707602 1.9808 0.804105Q2 0.900607 2 0.999L2 27.001Q2 27.0994 1.9808 27.1959Q1.96161 27.2924 1.92396 27.3833Q1.8863 27.4742 1.83164 27.556Q1.77697 27.6378 1.7074 27.7074Q1.63783 27.777 1.55601 27.8316Q1.4742 27.8863 1.3833 27.924Q1.2924 27.9616 1.1959 27.9808Q1.09939 28 1.001 28L0.999 28Q0.900607 28 0.804105 27.9808Q0.707602 27.9616 0.616699 27.924Q0.525796 27.8863 0.443985 27.8316Q0.362175 27.777 0.2926 27.7074Q0.223026 27.6378 0.168362 27.556Q0.113698 27.4742 0.0760443 27.3833Q0.038391 27.2924 0.0191955 27.1959Q0 27.0994 0 27.001L0 0.999Q0 0.900607 0.0191955 0.804105Q0.038391 0.707602 0.0760443 0.616699Q0.113698 0.525796 0.168362 0.443985Q0.223026 0.362175 0.2926 0.2926Q0.362175 0.223026 0.443985 0.168362Q0.525796 0.113698 0.616699 0.0760443Q0.707602 0.038391 0.804105 0.0191955Q0.900607 0 0.999 0Z" transform="matrix(-4.371139E-08 1 -1 -4.371139E-08 28 13)" id="Rectangle-12" fill="#0F73E7" stroke="none" />
  </g>
</svg>