<?xml version="1.0" encoding="UTF-8"?>
<svg width="32px" height="32px" viewBox="0 0 32 32" version="1.1" xmlns="http://www.w3.org/2000/svg" xmlns:xlink="http://www.w3.org/1999/xlink">
    <title>assignment-24px (1)</title>
    <g id="Symbols" stroke="none" stroke-width="1" fill="none" fill-rule="evenodd">
        <g id="Topbar/call_not_started" transform="translate(-1051.000000, -18.000000)">
            <g id="Group-3" transform="translate(1022.000000, 10.000000)">
                <g id="assignment-24px-(1)" transform="translate(29.000000, 8.000000)">
                    <polygon id="Path" points="0 0 32 0 32 32 0 32"></polygon>
                    <path d="M9.33333333,20 L18.6666667,20 L18.6666667,22.6666667 L9.33333333,22.6666667 L9.33333333,20 Z M9.33333333,14.6666667 L22.6666667,14.6666667 L22.6666667,17.3333333 L9.33333333,17.3333333 L9.33333333,14.6666667 Z M9.33333333,9.33333333 L22.6666667,9.33333333 L22.6666667,12 L9.33333333,12 L9.33333333,9.33333333 Z M25.3333333,4 L19.76,4 C19.2,2.45333333 17.7333333,1.33333333 16,1.33333333 C14.2666667,1.33333333 12.8,2.45333333 12.24,4 L6.66666667,4 C6.48,4 6.30666667,4.01333333 6.13333333,4.05333333 C5.61333333,4.16 5.14666667,4.42666667 4.78666667,4.78666667 C4.54666667,5.02666667 4.34666667,5.32 4.21333333,5.64 C4.08,5.94666667 4,6.29333333 4,6.66666667 L4,25.3333333 C4,25.6933333 4.08,26.0533333 4.21333333,26.3733333 C4.34666667,26.6933333 4.54666667,26.9733333 4.78666667,27.2266667 C5.14666667,27.5866667 5.61333333,27.8533333 6.13333333,27.96 C6.30666667,27.9866667 6.48,28 6.66666667,28 L25.3333333,28 C26.8,28 28,26.8 28,25.3333333 L28,6.66666667 C28,5.2 26.8,4 25.3333333,4 Z M16,3.66666667 C16.5466667,3.66666667 17,4.12 17,4.66666667 C17,5.21333333 16.5466667,5.66666667 16,5.66666667 C15.4533333,5.66666667 15,5.21333333 15,4.66666667 C15,4.12 15.4533333,3.66666667 16,3.66666667 Z M25.3333333,25.3333333 L6.66666667,25.3333333 L6.66666667,6.66666667 L25.3333333,6.66666667 L25.3333333,25.3333333 Z" id="Shape" fill="#0F73E7" fill-rule="nonzero"></path>
                </g>
            </g>
        </g>
    </g>
</svg>