<?xml version="1.0" encoding="UTF-8"?>
<svg width="20px" height="18px" viewBox="0 0 20 18" version="1.1" xmlns="http://www.w3.org/2000/svg" xmlns:xlink="http://www.w3.org/1999/xlink">
    <title>warning-black-24dp</title>
    <g id="Symbols" stroke="none" stroke-width="1" fill="none" fill-rule="evenodd">
        <g id="icon/Material/warning" transform="translate(-2.000000, -3.000000)" fill="#979797" fill-rule="nonzero">
            <g id="warning-black-24dp" transform="translate(2.000000, 3.000000)">
                <path d="M2.47,18 L17.53,18 C19.07,18 20.03,16.33 19.26,15 L11.73,1.99 C10.96,0.66 9.04,0.66 8.27,1.99 L0.74,15 C-0.03,16.33 0.93,18 2.47,18 Z M10,11 C9.45,11 9,10.55 9,10 L9,8 C9,7.45 9.45,7 10,7 C10.55,7 11,7.45 11,8 L11,10 C11,10.55 10.55,11 10,11 Z M11,15 L9,15 L9,13 L11,13 L11,15 Z" id="Shape"></path>
            </g>
        </g>
    </g>
</svg>